<?xml version="1.0" encoding="UTF-8"?>
<!-- Generator: visioncortex VTracer 0.6.3 -->
<svg version="1.1" xmlns="http://www.w3.org/2000/svg" width="1280" height="1280">
<path d="M0 0 C3.44 2.68 3.44 2.68 4.44 4.99 C6.22 8.22 8.78 10.59 11.39 13.15 C11.96 13.71 12.52 14.27 13.1 14.85 C14.89 16.63 16.7 18.41 18.5 20.19 C19.7 21.38 20.9 22.57 22.1 23.76 C24.32 25.97 26.54 28.16 28.76 30.36 C33.28 34.82 37.76 39.32 42.23 43.82 C45.17 46.77 48.11 49.72 51.05 52.67 C52.61 54.23 54.16 55.79 55.71 57.35 C57.96 59.61 60.2 61.86 62.45 64.11 C63.15 64.81 63.84 65.51 64.56 66.23 C65.52 67.2 65.52 67.2 66.51 68.19 C67.36 69.04 67.36 69.04 68.23 69.91 C69.67 71.35 69.67 71.35 71.69 72.25 C71.69 72.91 71.69 73.57 71.69 74.25 C72.68 74.58 73.67 74.91 74.69 75.25 C74.69 75.91 74.69 76.57 74.69 77.25 C75.35 77.25 76.01 77.25 76.69 77.25 C78.13 78.72 78.13 78.72 79.81 80.75 C84.69 86.47 89.61 91.9 95.81 96.19 C101.1 100.03 105.06 105.01 106.31 111.5 C105.53 114.95 104.14 116.73 101.69 119.25 C98.54 120.82 96.04 121.19 92.69 120.25 C90.55 118.66 90.55 118.66 88.22 116.49 C87.34 115.67 86.46 114.84 85.55 114 C80.35 109.01 75.22 103.94 70.12 98.85 C68.94 97.68 67.77 96.51 66.6 95.34 C64.16 92.9 61.72 90.47 59.29 88.04 C56.16 84.91 53.03 81.79 49.9 78.68 C47.48 76.27 45.07 73.87 42.66 71.45 C41.51 70.3 40.35 69.15 39.2 68 C37.59 66.41 35.99 64.8 34.39 63.2 C33.03 61.83 33.03 61.83 31.63 60.44 C29.69 58.25 29.69 58.25 29.69 56.25 C29.15 56.04 28.62 55.84 28.06 55.62 C24.77 53.72 22.09 51.2 19.69 48.25 C19.69 47.59 19.69 46.93 19.69 46.25 C19.13 46.02 18.57 45.8 18 45.56 C15.03 43.87 12.97 41.78 10.69 39.25 C10.69 38.59 10.69 37.93 10.69 37.25 C10.12 37.01 9.55 36.77 8.97 36.52 C6.22 34.99 4.38 33.13 2.19 30.88 C1.43 30.1 0.68 29.33 -0.09 28.54 C-1.55 27.04 -2.99 25.53 -4.43 24 C-6.69 21.9 -8.3 21.66 -11.31 21.25 C-11.64 20.92 -11.97 20.59 -12.31 20.25 C-14.37 22.06 -14.37 22.06 -16.31 24.25 C-16.31 25.24 -16.31 26.23 -16.31 27.25 C-18.27 29.58 -18.27 29.58 -20.98 32.29 C-21.46 32.76 -21.94 33.24 -22.44 33.74 C-23.45 34.75 -24.47 35.76 -25.49 36.77 C-27.05 38.3 -28.6 39.85 -30.14 41.4 C-37.99 49.21 -37.99 49.21 -42.31 51.25 C-44.05 53.22 -45.69 55.19 -47.31 57.25 C-48.35 58.53 -49.39 59.8 -50.44 61.06 C-50.91 61.65 -51.39 62.23 -51.88 62.83 C-53.31 64.25 -53.31 64.25 -56.31 65.25 C-56.58 65.8 -56.85 66.35 -57.13 66.92 C-58.88 70.36 -61.6 72.82 -64.31 75.51 C-64.9 76.1 -65.49 76.69 -66.09 77.3 C-67.34 78.55 -68.59 79.79 -69.83 81.03 C-71.75 82.93 -73.65 84.85 -75.55 86.76 C-76.76 87.97 -77.97 89.18 -79.18 90.39 C-79.75 90.96 -80.32 91.53 -80.91 92.12 C-83.35 94.54 -85.01 96.15 -88.31 97.25 C-88.58 97.83 -88.85 98.4 -89.12 99 C-90.84 102.25 -93.46 103.98 -96.31 106.25 C-98.06 107.93 -99.71 109.67 -101.38 111.44 C-103.31 113.25 -103.31 113.25 -105.31 113.25 C-105.39 114.47 -105.39 114.47 -104.31 116.25 C-104.46 117.08 -104.62 117.91 -104.77 118.77 C-105.47 123.25 -105.21 127.48 -104.94 132 C-104.89 132.86 -104.85 133.72 -104.8 134.61 C-104.68 139.08 -104.68 139.08 -103.31 143.25 C-101.83 142.26 -101.83 142.26 -100.31 141.25 C-97.51 140.91 -94.81 140.69 -92 140.56 C-91.2 140.53 -90.39 140.49 -89.57 140.46 C-68.27 139.66 -68.27 139.66 -60.31 146.2 C-54.31 152.35 -53.98 158.6 -53.88 166.88 C-53.86 167.69 -53.85 168.5 -53.84 169.33 C-53.92 174.74 -55 178.38 -57.31 183.25 C-57.99 189.26 -56.86 192.79 -54.27 198.18 C-50.12 207.17 -52.05 218.53 -54.36 227.75 C-55.34 230.32 -56.15 231.6 -58.31 233.25 C-58.97 233.25 -59.63 233.25 -60.31 233.25 C-60.97 233.91 -61.63 234.57 -62.31 235.25 C-62.31 236.24 -62.31 237.23 -62.31 238.25 C-69.66 242.28 -76.43 242.45 -84.62 242.5 C-85.97 242.53 -85.97 242.53 -87.35 242.56 C-88.24 242.57 -89.13 242.57 -90.05 242.58 C-90.85 242.59 -91.64 242.6 -92.46 242.61 C-96.61 242.09 -100.39 240.67 -104.31 239.25 C-104.39 245.6 -104.44 251.96 -104.48 258.31 C-104.49 260.47 -104.51 262.64 -104.54 264.8 C-104.58 267.9 -104.59 271.01 -104.61 274.11 C-104.62 275.08 -104.64 276.05 -104.65 277.05 C-104.65 277.95 -104.65 278.85 -104.65 279.78 C-104.66 280.57 -104.67 281.36 -104.67 282.18 C-104.19 284.96 -103.63 285.62 -101.31 287.25 C-98.56 287.53 -96.04 287.63 -93.29 287.59 C-92.05 287.59 -92.05 287.59 -90.79 287.59 C-88.01 287.59 -85.23 287.57 -82.45 287.54 C-80.46 287.54 -78.47 287.53 -76.48 287.53 C-72.19 287.52 -67.9 287.5 -63.61 287.48 C-56.83 287.43 -50.05 287.42 -43.27 287.4 C-27.64 287.37 -12.02 287.3 3.61 287.23 C17.92 287.17 32.23 287.12 46.54 287.09 C53.28 287.07 60.02 287.05 66.76 287 C70.96 286.98 75.15 286.97 79.35 286.97 C81.3 286.96 83.24 286.95 85.19 286.93 C87.84 286.91 90.5 286.91 93.16 286.91 C93.93 286.9 94.69 286.89 95.48 286.88 C100.59 286.91 104.15 287.85 108.69 290.25 C110.79 293.41 110.7 295.13 110.44 298.94 C109.69 302.25 109.69 302.25 107.69 304.25 C107.36 303.92 107.03 303.59 106.69 303.25 C103.79 303.18 100.91 303.17 98.01 303.21 C97.09 303.22 96.17 303.22 95.22 303.23 C92.11 303.26 89 303.29 85.89 303.32 C83.67 303.34 81.45 303.36 79.23 303.38 C74.44 303.42 69.64 303.47 64.85 303.51 C57.27 303.58 49.7 303.64 42.13 303.7 C40.85 303.71 39.57 303.72 38.26 303.72 C35.65 303.74 33.04 303.76 30.42 303.78 C23.71 303.83 16.99 303.88 10.27 303.93 C9.26 303.94 9.26 303.94 8.23 303.95 C-2.69 304.03 -13.62 304.13 -24.55 304.24 C-35.76 304.35 -46.97 304.44 -58.18 304.5 C-64.47 304.54 -70.77 304.59 -77.07 304.67 C-82.99 304.74 -88.91 304.78 -94.83 304.8 C-97.01 304.82 -99.19 304.84 -101.36 304.87 C-104.33 304.92 -107.29 304.93 -110.26 304.93 C-111.13 304.95 -111.99 304.97 -112.89 304.99 C-115.18 304.97 -117.11 304.89 -119.31 304.25 C-122.25 301.04 -123.81 298.34 -123.82 293.97 C-123.84 293.17 -123.85 292.38 -123.86 291.55 C-123.86 290.7 -123.85 289.84 -123.84 288.96 C-123.85 288.04 -123.86 287.12 -123.87 286.17 C-123.89 283.14 -123.89 280.1 -123.89 277.06 C-123.9 274.92 -123.91 272.78 -123.93 270.65 C-123.97 264.99 -123.98 259.34 -123.99 253.69 C-124.01 244.76 -124.07 235.82 -124.12 226.88 C-124.13 224.71 -124.14 222.55 -124.15 220.38 C-124.22 207.29 -124.35 194.21 -124.77 181.12 C-124.81 179.9 -124.85 178.67 -124.88 177.41 C-124.61 172.48 -124.61 172.48 -126.31 168.25 C-126.43 166.65 -126.48 165.04 -126.51 163.43 C-126.52 162.4 -126.54 161.37 -126.55 160.31 C-126.6 155.57 -126.64 150.82 -126.66 146.08 C-126.68 143.58 -126.71 141.09 -126.74 138.59 C-126.8 134.99 -126.82 131.39 -126.84 127.79 C-126.86 126.68 -126.88 125.58 -126.9 124.44 C-126.88 115.37 -124.45 108.45 -118.27 101.72 C-117.23 100.72 -116.19 99.73 -115.12 98.75 C-114.59 98.24 -114.06 97.73 -113.51 97.2 C-112.12 95.88 -110.72 94.56 -109.31 93.25 C-108.32 92.26 -108.32 92.26 -107.31 91.25 C-106.69 90.65 -106.07 90.05 -105.44 89.44 C-103.25 87.26 -103.25 87.26 -101.31 84.69 C-99.45 82.41 -97.79 80.82 -95.31 79.25 C-94.65 79.25 -93.99 79.25 -93.31 79.25 C-93.31 78.59 -93.31 77.93 -93.31 77.25 C-91.82 75.8 -91.82 75.8 -89.78 74.12 C-85.49 70.47 -81.68 66.52 -77.88 62.38 C-70.07 53.97 -62 45.84 -53.85 37.77 C-52.66 36.6 -51.49 35.43 -50.31 34.25 C-49.28 33.37 -48.23 32.5 -47.19 31.62 C-41.74 26.97 -36.72 21.94 -32.06 16.5 C-28.38 12.2 -24.36 8.24 -20.31 4.29 C-17.45 1.54 -17.45 1.54 -15.31 -1.75 C-9.71 -3.91 -4.82 -3.48 0 0 Z M102.69 111.25 C101.08 113.63 101.08 113.63 99.69 116.25 C100.02 116.91 100.35 117.57 100.69 118.25 C102.33 117.02 102.33 117.02 103.69 115.25 C103.46 113.09 103.46 113.09 102.69 111.25 Z M-86.31 159.25 C-85.31 161.25 -85.31 161.25 -85.31 161.25 Z M-83.31 160.25 C-84.9 163.42 -84.46 166.83 -84.44 170.31 C-84.44 171.06 -84.45 171.8 -84.45 172.57 C-84.78 176.21 -84.78 176.21 -83.31 179.25 C-79.83 179.07 -79.83 179.07 -76.31 178.25 C-74.1 174.93 -74.02 173.7 -74 169.81 C-73.98 168.87 -73.97 167.92 -73.95 166.94 C-74.37 163.83 -75.09 162.45 -77.31 160.25 C-80.44 159.92 -80.44 159.92 -83.31 160.25 Z M-57.31 165.25 C-56.31 167.25 -56.31 167.25 -56.31 167.25 Z M-57.31 174.25 C-56.31 177.25 -56.31 177.25 -56.31 177.25 Z M-58.31 178.25 C-58.64 179.57 -58.97 180.89 -59.31 182.25 C-58.65 181.92 -57.99 181.59 -57.31 181.25 C-57.64 180.26 -57.97 179.27 -58.31 178.25 Z M-60.31 182.25 C-59.31 184.25 -59.31 184.25 -59.31 184.25 Z M-85.31 197.25 C-85.31 198.24 -85.31 199.23 -85.31 200.25 C-84.65 199.26 -83.99 198.27 -83.31 197.25 C-83.97 197.25 -84.63 197.25 -85.31 197.25 Z M-84.31 200.25 C-84.76 202.44 -84.76 202.44 -84.68 204.97 C-84.68 205.9 -84.67 206.83 -84.67 207.79 C-84.66 208.77 -84.64 209.74 -84.62 210.75 C-84.63 211.73 -84.63 212.7 -84.63 213.71 C-84.93 219.02 -84.93 219.02 -82.31 223.25 C-78.8 223.49 -78.8 223.49 -75.31 222.25 C-71.81 217.21 -72.03 212.75 -72.8 206.78 C-73.43 203.67 -74.13 201.59 -76.31 199.25 C-80.12 197.82 -80.83 197.93 -84.31 200.25 Z M-56.31 223.25 C-55.31 226.25 -55.31 226.25 -55.31 226.25 Z M-57.31 226.25 C-56.31 229.25 -56.31 229.25 -56.31 229.25 Z M-58.31 229.25 C-57.31 231.25 -57.31 231.25 -57.31 231.25 Z M-65.31 236.25 C-65.97 236.91 -66.63 237.57 -67.31 238.25 C-65.99 237.92 -64.67 237.59 -63.31 237.25 C-63.97 236.92 -64.63 236.59 -65.31 236.25 Z M-108.31 279.25 C-107.31 281.25 -107.31 281.25 -107.31 281.25 Z " fill="#75B3DA" transform="translate(348.3125,439.75)"/>
<path d="M0 0 C2.91 4.78 3.85 9.74 4.94 15.19 C5.13 16.05 5.33 16.91 5.53 17.8 C6.68 23.09 7.23 28.3 7.65 33.69 C8 36.7 8.8 39.38 9.94 42.19 C10.27 42.19 10.6 42.19 10.94 42.19 C12.71 33.12 14.38 24.47 13.94 15.19 C14.27 15.19 14.6 15.19 14.94 15.19 C15.02 14.01 15.1 12.84 15.19 11.62 C15.78 6.97 17.21 4 19.94 0.19 C22.12 -0.62 22.12 -0.62 23.94 -0.81 C24.27 -1.47 24.6 -2.13 24.94 -2.81 C31.55 -3.23 37.43 -2.88 42.94 1.19 C45.24 5.51 45.22 9.71 45.2 14.49 C45.2 15.32 45.2 16.14 45.21 16.99 C45.22 19.7 45.21 22.42 45.2 25.13 C45.2 27.02 45.21 28.91 45.21 30.8 C45.21 34.75 45.21 38.71 45.2 42.66 C45.19 47.73 45.19 52.8 45.21 57.87 C45.21 61.77 45.21 65.67 45.21 69.57 C45.2 71.44 45.21 73.31 45.21 75.18 C45.22 77.79 45.21 80.4 45.2 83.01 C45.2 83.78 45.2 84.56 45.21 85.35 C45.15 92.25 45.15 92.25 42.94 95.19 C41.45 95.68 41.45 95.68 39.94 96.19 C39.94 96.85 39.94 97.51 39.94 98.19 C35.24 99.11 32.21 99.51 27.94 97.19 C25.12 94.37 25.31 91.97 24.81 88.06 C24.56 86.14 24.56 86.14 24.3 84.18 C24.18 83.19 24.06 82.2 23.94 81.19 C23.61 81.19 23.28 81.19 22.94 81.19 C22.77 82.1 22.6 83.02 22.42 83.96 C22.18 85.15 21.94 86.34 21.69 87.56 C21.34 89.34 21.34 89.34 20.98 91.15 C19.94 94.19 19.94 94.19 17.83 95.6 C17.2 95.79 16.58 95.99 15.94 96.19 C15.94 96.85 15.94 97.51 15.94 98.19 C7.94 99.63 7.94 99.63 4 97.88 C0.07 94.66 -0.91 91.84 -2.19 87.06 C-2.37 86.4 -2.55 85.75 -2.74 85.07 C-3.19 83.44 -3.62 81.81 -4.06 80.19 C-5.06 83.19 -5.23 85.49 -5.38 88.62 C-5.68 92.11 -5.84 93.84 -7.75 96.81 C-10.64 98.53 -12.7 99.05 -16.06 99.19 C-18.92 98.46 -20.55 97.67 -22.68 95.64 C-24.69 92.08 -24.5 88.64 -24.48 84.66 C-24.49 83.8 -24.5 82.94 -24.51 82.06 C-24.53 79.22 -24.53 76.38 -24.53 73.54 C-24.54 71.56 -24.55 69.59 -24.55 67.61 C-24.57 63.47 -24.57 59.33 -24.56 55.19 C-24.56 49.89 -24.59 44.59 -24.63 39.29 C-24.65 35.21 -24.66 31.13 -24.65 27.05 C-24.66 25.09 -24.67 23.14 -24.68 21.18 C-24.71 18.45 -24.7 15.71 -24.68 12.98 C-24.69 12.17 -24.7 11.37 -24.72 10.54 C-24.66 6.45 -24.26 3.93 -21.65 0.69 C-16.05 -4.73 -6.47 -3.83 0 0 Z M40.94 1.19 C41.94 3.19 41.94 3.19 41.94 3.19 Z M40.94 16.19 C41.94 18.19 41.94 18.19 41.94 18.19 Z M19.94 73.19 C20.94 75.19 20.94 75.19 20.94 75.19 Z M19.94 76.19 C20.94 78.19 20.94 78.19 20.94 78.19 Z M19.94 79.19 C20.94 82.19 20.94 82.19 20.94 82.19 Z M18.94 83.19 C19.94 85.19 19.94 85.19 19.94 85.19 Z M-9.06 85.19 C-8.06 87.19 -8.06 87.19 -8.06 87.19 Z M17.94 89.19 C18.94 93.19 18.94 93.19 18.94 93.19 Z M-9.06 92.19 C-10.55 94.17 -10.55 94.17 -12.06 96.19 C-10.74 95.86 -9.42 95.53 -8.06 95.19 C-8.39 94.2 -8.72 93.21 -9.06 92.19 Z " fill="#F5C370" transform="translate(713.0625,582.8125)"/>
<path d="M0 0 C1 2 1 2 0.54 4.52 C-0.16 9 0.1 13.23 0.38 17.75 C0.42 18.61 0.46 19.47 0.51 20.36 C0.63 24.83 0.63 24.83 2 29 C2.99 28.34 3.98 27.68 5 27 C7.8 26.66 10.5 26.44 13.31 26.31 C14.12 26.28 14.92 26.24 15.75 26.21 C37.04 25.41 37.04 25.41 45 31.95 C51.01 38.1 51.33 44.35 51.44 52.62 C51.45 53.84 51.45 53.84 51.47 55.08 C51.39 60.49 50.31 64.13 48 69 C47.32 75.01 48.45 78.54 51.04 83.93 C55.19 92.92 53.26 104.28 50.95 113.5 C49.97 116.07 49.17 117.35 47 119 C46.34 119 45.68 119 45 119 C44.34 119.66 43.68 120.32 43 121 C43 121.99 43 122.98 43 124 C35.65 128.03 28.88 128.2 20.69 128.25 C19.34 128.28 19.34 128.28 17.96 128.31 C17.07 128.32 16.18 128.32 15.26 128.33 C14.47 128.34 13.67 128.35 12.85 128.36 C8.7 127.84 4.92 126.42 1 125 C0.92 131.34 0.87 137.67 0.84 144.01 C0.82 146.16 0.8 148.32 0.77 150.47 C0.74 153.57 0.72 156.67 0.71 159.77 C0.69 160.73 0.68 161.69 0.66 162.69 C0.66 163.59 0.66 164.49 0.66 165.42 C0.65 166.21 0.65 167 0.64 167.81 C1.09 170.53 2.22 171.94 4 174 C2.02 174 0.04 174 -2 174 C-2.79 167.76 -3.13 161.72 -3.06 155.43 C-3.05 153.57 -3.05 151.71 -3.04 149.85 C-3.03 148.87 -3.02 147.9 -3.02 146.9 C-2.93 132.46 -2.94 118.03 -3.43 103.6 C-4.08 83.94 -4.21 64.27 -4.29 44.61 C-4.3 41.04 -4.33 37.47 -4.36 33.9 C-4.4 29.66 -4.42 25.41 -4.42 21.17 C-4.42 19.57 -4.43 17.98 -4.45 16.39 C-4.48 14.19 -4.48 11.99 -4.47 9.79 C-4.48 8.55 -4.48 7.3 -4.49 6.02 C-4 3 -4 3 -1.97 1.08 C-1.32 0.72 -0.67 0.37 0 0 Z M19 45 C20 47 20 47 20 47 Z M22 46 C20.41 49.17 20.86 52.58 20.88 56.06 C20.87 56.81 20.87 57.55 20.86 58.32 C20.53 61.96 20.53 61.96 22 65 C25.48 64.82 25.48 64.82 29 64 C31.21 60.68 31.3 59.45 31.31 55.56 C31.33 54.62 31.35 53.67 31.36 52.69 C30.94 49.58 30.22 48.2 28 46 C24.87 45.67 24.87 45.67 22 46 Z M48 51 C49 53 49 53 49 53 Z M48 60 C49 63 49 63 49 63 Z M47 64 C46.67 65.32 46.34 66.64 46 68 C46.66 67.67 47.32 67.34 48 67 C47.67 66.01 47.34 65.02 47 64 Z M45 68 C46 70 46 70 46 70 Z M20 83 C20 83.99 20 84.98 20 86 C20.66 85.01 21.32 84.02 22 83 C21.34 83 20.68 83 20 83 Z M21 86 C20.55 88.19 20.55 88.19 20.64 90.72 C20.64 91.65 20.64 92.58 20.64 93.54 C20.65 94.52 20.67 95.49 20.69 96.5 C20.68 97.48 20.68 98.45 20.68 99.46 C20.38 104.77 20.38 104.77 23 109 C26.51 109.24 26.51 109.24 30 108 C33.5 102.96 33.28 98.5 32.51 92.53 C31.88 89.42 31.18 87.34 29 85 C25.19 83.57 24.48 83.68 21 86 Z M49 109 C50 112 50 112 50 112 Z M48 112 C49 115 49 115 49 115 Z M47 115 C48 117 48 117 48 117 Z M40 122 C39.34 122.66 38.68 123.32 38 124 C39.32 123.67 40.64 123.34 42 123 C41.34 122.67 40.68 122.34 40 122 Z " fill="#F5C26E" transform="translate(243,554)"/>
<path d="M0 0 C1.67 0.31 3.34 0.65 5 1 C5.66 1.13 6.33 1.27 7.01 1.41 C7.71 1.56 8.41 1.72 9.12 1.88 C10.12 2.09 10.12 2.09 11.13 2.3 C13.52 3.19 14.45 3.95 16 6 C16.96 8.36 17.8 10.64 18.56 13.06 C18.78 13.73 19 14.4 19.22 15.08 C20.7 19.72 21.81 24.33 22.54 29.14 C22.89 31.23 22.89 31.23 25 33 C25.01 32.24 25.03 31.48 25.04 30.69 C25.12 27.23 25.22 23.77 25.31 20.31 C25.34 19.11 25.36 17.92 25.38 16.68 C25.42 15.52 25.45 14.37 25.49 13.18 C25.51 12.11 25.54 11.05 25.57 9.95 C26.06 6.62 26.99 4.68 29 2 C31.34 1.41 31.34 1.41 33.94 1.5 C35.22 1.52 35.22 1.52 36.53 1.53 C39.44 2.08 40.86 2.97 43 5 C44.28 8.83 44.16 12.44 44.18 16.43 C44.19 17.72 44.19 17.72 44.2 19.04 C44.22 21.89 44.23 24.74 44.24 27.59 C44.24 28.56 44.25 29.53 44.25 30.53 C44.27 35.68 44.29 40.83 44.3 45.98 C44.31 51.3 44.34 56.61 44.38 61.93 C44.41 66.02 44.41 70.11 44.42 74.2 C44.42 76.16 44.43 78.12 44.45 80.08 C44.48 82.82 44.48 85.57 44.47 88.31 C44.48 89.12 44.5 89.93 44.51 90.76 C44.47 94.55 44.15 96.76 42.11 99.99 C39.15 102.81 37.12 102.84 33.2 103.09 C30.46 102.98 28.39 102.31 26 101 C26 100.34 26 99.68 26 99 C25.01 98.67 24.02 98.34 23 98 C22.08 95.98 22.08 95.98 21.32 93.33 C21.03 92.35 20.74 91.38 20.44 90.37 C20.15 89.34 19.86 88.31 19.56 87.25 C18.98 85.26 18.4 83.26 17.82 81.27 C17.38 79.75 17.38 79.75 16.94 78.21 C15.35 72.79 13.68 67.4 12 62 C11.99 62.97 11.97 63.94 11.96 64.93 C11.9 68.55 11.82 72.16 11.74 75.77 C11.7 77.33 11.68 78.89 11.65 80.45 C11.62 82.7 11.57 84.95 11.51 87.2 C11.5 88.23 11.5 88.23 11.49 89.29 C11.35 93.88 10.4 97.09 8 101 C4.39 103.15 0.77 103.16 -3.25 102.31 C-8.09 100 -8.09 100 -10 98 C-10.42 95.03 -10.58 92.42 -10.58 89.45 C-10.59 88.57 -10.6 87.7 -10.62 86.8 C-10.66 83.91 -10.67 81.02 -10.68 78.12 C-10.7 76.12 -10.72 74.11 -10.74 72.11 C-10.79 67.9 -10.82 63.69 -10.84 59.49 C-10.87 54.09 -10.92 48.69 -10.98 43.29 C-11.03 39.15 -11.06 35.01 -11.09 30.86 C-11.11 28.87 -11.13 26.88 -11.15 24.89 C-11.18 22.11 -11.19 19.33 -11.2 16.55 C-11.21 15.73 -11.22 14.9 -11.23 14.05 C-11.23 10.17 -11.21 8.31 -9 5 C-8.34 5 -7.68 5 -7 5 C-7 4.01 -7 3.02 -7 2 C-2.25 0.88 -2.25 0.88 0 2 C0 1.34 0 0.68 0 0 Z M41 9 C42 11 42 11 42 11 Z M41 18 C42 22 42 22 42 22 Z M41 27 C42 31 42 31 42 31 Z M41 89 C42 91 42 91 42 91 Z M41 92 C42 95 42 95 42 95 Z M7 96 C8 99 8 99 8 99 Z M40 97 C39.67 97.99 39.34 98.98 39 100 C39.66 100 40.32 100 41 100 C40.67 99.01 40.34 98.02 40 97 Z " fill="#F5C26F" transform="translate(540,579)"/>
<path d="M0 0 C1.75 -0 1.75 -0 3.53 -0 C5.35 0.03 5.35 0.03 7.21 0.06 C8.4 0.05 9.6 0.04 10.83 0.04 C18.96 0.1 26.37 0.49 32.83 5.81 C40.56 15.3 41.78 23.47 41.02 35.5 C40.69 35.83 40.36 36.16 40.02 36.5 C39.92 38.02 39.89 39.56 39.89 41.09 C39.89 42.04 39.88 42.99 39.88 43.96 C39.89 45.47 39.89 45.47 39.89 47 C39.89 47.97 39.89 48.93 39.88 49.93 C39.89 55.18 40.1 60.29 40.79 65.49 C41.87 74.84 40.57 84.18 36.02 92.5 C29.59 99.42 22.91 101.12 13.68 101.62 C11.25 101.7 8.83 101.73 6.39 101.75 C5.57 101.77 4.75 101.79 3.91 101.81 C-1.14 101.84 -4.62 101.33 -8.98 98.5 C-10.63 95.2 -10.15 91.52 -10.16 87.89 C-10.16 87 -10.17 86.1 -10.18 85.19 C-10.2 82.23 -10.21 79.27 -10.22 76.32 C-10.22 75.31 -10.23 74.3 -10.23 73.26 C-10.25 67.93 -10.27 62.59 -10.28 57.26 C-10.29 51.74 -10.32 46.22 -10.36 40.71 C-10.39 36.47 -10.4 32.23 -10.4 28 C-10.4 25.96 -10.42 23.93 -10.43 21.9 C-10.46 19.05 -10.46 16.21 -10.45 13.36 C-10.46 12.52 -10.48 11.68 -10.49 10.81 C-10.46 7.15 -10.32 4.96 -8.13 1.97 C-5.29 0.02 -3.43 -0.01 0 0 Z M8.02 17.5 C8.35 18.16 8.68 18.82 9.02 19.5 C9.35 18.84 9.68 18.18 10.02 17.5 C9.36 17.5 8.7 17.5 8.02 17.5 Z M7.02 19.5 C8.02 21.5 8.02 21.5 8.02 21.5 Z M10.02 21.5 C8.86 27.57 8.81 33.45 10.02 39.5 C9.36 39.5 8.7 39.5 8.02 39.5 C8.02 43.46 8.02 47.42 8.02 51.5 C8.35 51.5 8.68 51.5 9.02 51.5 C9.01 52.05 9.01 52.6 9 53.17 C8.84 67.37 8.84 67.37 10.02 81.5 C12.82 82.35 12.82 82.35 16.02 82.5 C18.41 81.27 18.41 81.27 20.02 78.5 C20.67 74.81 20.67 71.15 20.7 67.41 C20.72 66.33 20.74 65.24 20.76 64.12 C20.8 61.82 20.84 59.52 20.86 57.22 C20.89 53.71 20.96 50.2 21.04 46.69 C21.07 44.45 21.1 42.21 21.14 39.98 C21.16 38.93 21.18 37.89 21.2 36.81 C21.24 31.3 21 26.66 19.02 21.5 C17.19 19.25 17.19 19.25 14.52 19.25 C11.85 19.25 11.85 19.25 10.02 21.5 Z M39.02 67.5 C40.02 69.5 40.02 69.5 40.02 69.5 Z M39.02 71.5 C40.02 75.5 40.02 75.5 40.02 75.5 Z M36.02 84.5 C35.69 86.15 35.36 87.8 35.02 89.5 C35.68 89.17 36.34 88.84 37.02 88.5 C36.69 87.18 36.36 85.86 36.02 84.5 Z M34.02 89.5 C34.02 92.5 34.02 92.5 34.02 92.5 Z M31.02 92.5 C29.38 94.46 29.38 94.46 28.02 96.5 C31.14 95.19 31.14 95.19 33.02 92.5 C32.36 92.5 31.7 92.5 31.02 92.5 Z " fill="#F5C26F" transform="translate(840.98046875,580.50390625)"/>
<path d="M0 0 C4.56 3.31 8.27 7.79 9.47 13.41 C10.13 19.96 10.22 26.48 10.23 33.05 C10.23 34.83 10.23 34.83 10.24 36.64 C10.24 39.14 10.24 41.63 10.24 44.12 C10.25 47.92 10.26 51.71 10.28 55.51 C10.29 57.94 10.29 60.37 10.29 62.8 C10.3 63.93 10.3 65.05 10.31 66.21 C10.26 83.29 10.26 83.29 6.06 87.5 C5.03 88.3 4 89.1 2.93 89.93 C1.98 90.78 1.04 91.62 0.06 92.5 C0.06 93.49 0.06 94.48 0.06 95.5 C-7.73 99.39 -15.43 100.48 -23.91 98.21 C-31.07 95.68 -35.96 90.13 -39.51 83.63 C-41.71 78.36 -41.35 72.9 -41.3 67.27 C-41.31 66.1 -41.31 64.92 -41.31 63.7 C-41.3 61.22 -41.29 58.73 -41.28 56.24 C-41.25 52.47 -41.26 48.7 -41.26 44.94 C-41.22 11.3 -41.22 11.3 -34.94 4.5 C-25.13 -4.88 -12.04 -6.98 0 0 Z M-20.94 14.5 C-20.94 15.49 -20.94 16.48 -20.94 17.5 C-20.28 16.51 -19.62 15.52 -18.94 14.5 C-19.6 14.5 -20.26 14.5 -20.94 14.5 Z M-17.63 16.81 C-19.98 19.84 -20.08 21.82 -20.1 25.6 C-20.11 26.67 -20.12 27.73 -20.13 28.83 C-20.14 29.98 -20.14 31.14 -20.14 32.33 C-20.15 33.51 -20.16 34.7 -20.16 35.92 C-20.17 38.42 -20.18 40.93 -20.18 43.44 C-20.19 47.28 -20.22 51.12 -20.25 54.96 C-20.26 57.39 -20.27 59.83 -20.27 62.27 C-20.28 63.41 -20.29 64.56 -20.31 65.75 C-20.3 66.82 -20.3 67.9 -20.3 69 C-20.3 69.95 -20.31 70.89 -20.31 71.86 C-19.87 74.99 -18.71 76.91 -16.94 79.5 C-14.5 79.23 -14.5 79.23 -11.94 78.5 C-9.74 75.2 -9.69 74.21 -9.68 70.39 C-9.68 69.34 -9.67 68.3 -9.66 67.23 C-9.67 66.1 -9.67 64.98 -9.68 63.82 C-9.67 62.66 -9.67 61.5 -9.67 60.31 C-9.67 57.86 -9.67 55.41 -9.68 52.96 C-9.69 49.21 -9.68 45.46 -9.67 41.72 C-9.67 39.33 -9.67 36.95 -9.68 34.57 C-9.67 33.45 -9.67 32.33 -9.66 31.18 C-9.67 23.63 -9.67 23.63 -11.94 16.5 C-14.49 15.1 -15.31 15.01 -17.63 16.81 Z M-22.94 18.5 C-21.94 21.5 -21.94 21.5 -21.94 21.5 Z M7.06 55.5 C8.06 59.5 8.06 59.5 8.06 59.5 Z M7.06 64.5 C8.06 66.5 8.06 66.5 8.06 66.5 Z M7.06 68.5 C8.06 70.5 8.06 70.5 8.06 70.5 Z M6.06 82.5 C7.06 84.5 7.06 84.5 7.06 84.5 Z " fill="#F5C372" transform="translate(346.94140625,583.50390625)"/>
<path d="M0 0 C7.22 4.19 10.59 8.95 12.77 17.03 C13.31 21.85 13.31 26.62 13.27 31.47 C13.27 32.85 13.27 34.22 13.27 35.6 C13.28 38.47 13.26 41.34 13.24 44.2 C13.21 47.86 13.21 51.51 13.23 55.16 C13.23 58 13.23 60.84 13.21 63.68 C13.21 65.67 13.21 67.66 13.22 69.66 C13.05 85.31 13.05 85.31 8.31 90.69 C6.58 92.19 4.85 93.1 2.77 94.03 C2.77 95.02 2.77 96.01 2.77 97.03 C-3.75 99.71 -9.13 101.67 -16.23 101.03 C-16.89 100.7 -17.55 100.37 -18.23 100.03 C-18.97 100.09 -19.71 100.15 -20.48 100.21 C-24.27 99.96 -26.26 98.32 -29.23 96.03 C-29.56 95.37 -29.89 94.71 -30.23 94.03 C-31.22 93.37 -32.21 92.71 -33.23 92.03 C-34.58 89.06 -34.58 89.06 -35.85 85.53 C-37.38 81.21 -37.38 81.21 -39.23 77.03 C-39.32 75.18 -39.34 73.33 -39.34 71.48 C-39.34 70.32 -39.34 69.15 -39.34 67.96 C-39.33 66.7 -39.33 65.44 -39.32 64.14 C-39.32 62.86 -39.32 61.58 -39.32 60.25 C-39.32 56.84 -39.31 53.42 -39.3 50 C-39.29 46.52 -39.28 43.03 -39.28 39.55 C-39.26 32.71 -39.25 25.87 -39.23 19.03 C-38.57 19.03 -37.91 19.03 -37.23 19.03 C-37.13 17.54 -37.13 17.54 -37.04 16.03 C-36.28 11.21 -34.59 7.59 -31.23 4.03 C-22.09 -2.58 -10.53 -4.82 0 0 Z M-18.23 16.03 C-17.9 16.69 -17.57 17.35 -17.23 18.03 C-16.9 17.37 -16.57 16.71 -16.23 16.03 C-16.89 16.03 -17.55 16.03 -18.23 16.03 Z M-20.23 18.03 C-19.9 18.69 -19.57 19.35 -19.23 20.03 C-18.9 19.37 -18.57 18.71 -18.23 18.03 C-18.89 18.03 -19.55 18.03 -20.23 18.03 Z M-14.85 18.15 C-17.77 20.46 -17.74 21.43 -18.23 25.03 C-18.32 26.69 -18.36 28.35 -18.37 30.01 C-18.38 30.98 -18.38 31.94 -18.39 32.94 C-18.39 33.97 -18.39 35 -18.39 36.06 C-18.4 37.13 -18.4 38.2 -18.4 39.3 C-18.41 41.55 -18.41 43.81 -18.41 46.06 C-18.41 49.51 -18.43 52.96 -18.45 56.41 C-18.45 58.61 -18.46 60.8 -18.46 63 C-18.46 64.03 -18.47 65.06 -18.48 66.12 C-18.48 67.08 -18.47 68.05 -18.47 69.04 C-18.47 69.89 -18.47 70.73 -18.47 71.6 C-18.08 75.51 -17.01 78.24 -14.23 81.03 C-11.67 81.1 -11.67 81.1 -9.23 80.03 C-7.49 76.61 -6.97 73.78 -6.97 69.98 C-6.96 69 -6.96 68.02 -6.95 67.02 C-6.95 65.97 -6.96 64.93 -6.96 63.85 C-6.96 62.76 -6.96 61.68 -6.96 60.56 C-6.95 58.26 -6.96 55.97 -6.97 53.67 C-6.98 50.17 -6.97 46.67 -6.95 43.17 C-6.95 40.94 -6.96 38.71 -6.96 36.47 C-6.96 35.43 -6.95 34.39 -6.95 33.32 C-6.98 27.88 -7.14 23.09 -9.23 18.03 C-12.19 16.67 -12.19 16.67 -14.85 18.15 Z M-21.23 42.03 C-20.23 44.03 -20.23 44.03 -20.23 44.03 Z M-21.23 55.03 C-20.23 57.03 -20.23 57.03 -20.23 57.03 Z M-21.23 63.03 C-20.23 65.03 -20.23 65.03 -20.23 65.03 Z M9.77 69.03 C10.77 71.03 10.77 71.03 10.77 71.03 Z M8.77 83.03 C9.77 86.03 9.77 86.03 9.77 86.03 Z M6.77 88.03 C7.77 90.03 7.77 90.03 7.77 90.03 Z " fill="#F5C371" transform="translate(407.2265625,581.97265625)"/>
<path d="M0 0 C0 0.66 0 1.32 0 2 C0.7 2.08 1.4 2.16 2.12 2.25 C7.89 3.75 11.74 7.15 14.96 12.02 C18.15 18.11 19.13 26.25 18 33 C16.32 35.51 15.12 35.97 12.19 36.8 C11.14 36.97 10.08 37.14 9 37.31 C7.95 37.49 6.9 37.68 5.81 37.86 C3 38 3 38 0 36 C-1.78 31.05 -2.45 26.19 -3 21 C-5.31 21 -7.62 21 -10 21 C-10 41.13 -10 61.26 -10 82 C-5.39 83.45 -5.39 83.45 -3 82 C-2.57 79.4 -2.3 76.93 -2.12 74.31 C-2.05 73.6 -1.98 72.9 -1.91 72.17 C-1.54 66.9 -2.57 64.21 -6 60 C-6.74 59.17 -7.49 58.35 -8.25 57.5 C-10.39 54.45 -10.34 52.65 -10 49 C-9.34 49 -8.68 49 -8 49 C-7.71 48.36 -7.42 47.72 -7.12 47.06 C-6 45 -6 45 -4 44 C-1.21 43.8 1.52 43.68 4.31 43.62 C5.45 43.57 5.45 43.57 6.62 43.51 C10.88 43.44 12.5 43.61 15.98 46.34 C20.27 51.99 18.99 58.16 18.75 64.94 C18.71 66.7 18.71 66.7 18.67 68.49 C18.29 79.42 17.48 90.76 9.19 98.69 C1.81 104.04 -6.2 103.62 -15 103 C-20.25 101.81 -25.03 98.78 -28.16 94.36 C-31.53 88.79 -32.12 84.08 -32.16 77.68 C-32.17 76.43 -32.18 75.17 -32.19 73.88 C-32.2 72.52 -32.2 71.16 -32.2 69.79 C-32.21 69.1 -32.21 68.41 -32.21 67.7 C-32.23 64.04 -32.24 60.38 -32.24 56.72 C-32.25 52.96 -32.27 49.19 -32.3 45.43 C-32.32 42.52 -32.32 39.61 -32.32 36.7 C-32.33 35.32 -32.33 33.93 -32.35 32.55 C-32.44 22.13 -31.54 14.1 -24.84 5.77 C-17.95 -0.84 -8.97 -0.51 0 0 Z M-11 18 C-10.67 18.66 -10.34 19.32 -10 20 C-9.67 19.34 -9.34 18.68 -9 18 C-9.66 18 -10.32 18 -11 18 Z M-13 20 C-12.67 20.66 -12.34 21.32 -12 22 C-11.67 21.34 -11.34 20.68 -11 20 C-11.66 20 -12.32 20 -13 20 Z M-14 22 C-13 24 -13 24 -13 24 Z M15 30 C16 34 16 34 16 34 Z M15 61 C16 63 16 63 16 63 Z M15 64 C15 66.31 15 68.62 15 71 C15.33 71 15.66 71 16 71 C16 68.69 16 66.38 16 64 C15.67 64 15.34 64 15 64 Z M15 73 C16 76 16 76 16 76 Z M14 83 C15 86 15 86 15 86 Z M13 87 C14 90 14 90 14 90 Z M12 90 C11.67 91.32 11.34 92.64 11 94 C11.66 93.67 12.32 93.34 13 93 C12.67 92.01 12.34 91.02 12 90 Z M9 95 C8.67 95.66 8.34 96.32 8 97 C8.66 97 9.32 97 10 97 C9.67 96.34 9.34 95.68 9 95 Z M6 97 C6.33 97.66 6.66 98.32 7 99 C7.33 98.34 7.66 97.68 8 97 C7.34 97 6.68 97 6 97 Z " fill="#F5C270" transform="translate(629,579)"/>
<path d="M0 0 C5.88 -0.23 8.72 0.16 13.25 3.81 C15 6 15 6 15.38 8.5 C14.98 11.12 14.22 12.67 13 15 C12.25 16.57 11.5 18.13 10.76 19.7 C10.33 20.6 9.9 21.5 9.46 22.43 C8.58 24.29 7.69 26.16 6.81 28.03 C6.38 28.93 5.95 29.83 5.51 30.77 C5.09 31.66 4.67 32.55 4.24 33.47 C3 36 3 36 1.75 38.1 C-1.46 43.61 -1.53 47.84 0 54 C1.55 58.6 3.4 63.04 5.31 67.5 C6.29 69.82 7.26 72.15 8.24 74.47 C9.57 77.62 10.9 80.76 12.24 83.91 C12.6 84.78 12.97 85.65 13.34 86.55 C13.66 87.31 13.97 88.06 14.3 88.84 C15.43 92.32 15.27 95.37 15 99 C14.01 99.5 14.01 99.5 13 100 C12.67 100.66 12.34 101.32 12 102 C7.1 102.98 3.43 103.71 -1 101 C-4.97 96.81 -6.68 92.26 -8.62 86.94 C-9.22 85.34 -9.82 83.75 -10.41 82.15 C-10.67 81.45 -10.93 80.75 -11.19 80.03 C-12.69 75.75 -12.69 75.75 -16 73 C-15.98 73.6 -15.97 74.2 -15.95 74.82 C-15.89 77.57 -15.85 80.31 -15.81 83.06 C-15.79 84.01 -15.76 84.95 -15.74 85.92 C-15.68 91.75 -16.14 95.87 -19 101 C-22.69 103.61 -26.49 103.08 -30.82 102.78 C-34.12 101.6 -35.14 99.95 -37 97 C-37.57 94.08 -37.54 91.22 -37.5 88.25 C-37.51 87.38 -37.51 86.51 -37.52 85.61 C-37.53 82.74 -37.51 79.87 -37.5 77 C-37.5 75 -37.5 73 -37.5 71 C-37.5 66.82 -37.49 62.63 -37.47 58.45 C-37.44 53.08 -37.44 47.72 -37.45 42.36 C-37.46 38.23 -37.45 34.1 -37.44 29.98 C-37.44 28 -37.44 26.02 -37.44 24.04 C-37.44 21.28 -37.43 18.51 -37.4 15.75 C-37.41 14.93 -37.41 14.12 -37.42 13.28 C-37.36 8.74 -37.01 5.65 -34 2 C-29.96 1.02 -26.08 1.31 -22 2 C-18.25 4.65 -16.86 6.61 -16 11 C-15.78 13.75 -15.59 16.49 -15.44 19.25 C-15.39 20 -15.35 20.74 -15.31 21.51 C-15.2 23.34 -15.1 25.17 -15 27 C-11.36 21.81 -8.63 16.38 -5.91 10.66 C-5.58 9.97 -5.25 9.29 -4.9 8.58 C-4.61 7.97 -4.31 7.35 -4.01 6.71 C-2.12 3.51 -0.55 2.18 3 1 C2.01 0.67 1.02 0.34 0 0 Z M11 12 C12 14 12 14 12 14 Z M10 14 C11 16 11 16 11 16 Z M9 16 C10 18 10 18 10 18 Z M7 19 C8 22 8 22 8 22 Z M6 22 C7 24 7 24 7 24 Z M5 24 C4.67 25.32 4.34 26.64 4 28 C4.66 27.67 5.32 27.34 6 27 C5.67 26.01 5.34 25.02 5 24 Z M3 28 C4 30 4 30 4 30 Z M2 30 C3 32 3 32 3 32 Z M1 32 C2 34 2 34 2 34 Z M0 34 C1 36 1 36 1 36 Z M-1 36 C-1 39 -1 39 -1 39 Z M-3 39 C-2 42 -2 42 -2 42 Z M-4 42 C-3 44 -3 44 -3 44 Z M-5 44 C-4 46 -4 46 -4 46 Z M-19 70 C-18 72 -18 72 -18 72 Z M-20 97 C-20 97.66 -20 98.32 -20 99 C-20.99 99.5 -20.99 99.5 -22 100 C-21.01 100 -20.02 100 -19 100 C-19.33 99.01 -19.66 98.02 -20 97 Z " fill="#F5C371" transform="translate(470,579)"/>
<path d="M0 0 C1.32 0 2.64 0 4 0 C4 0.66 4 1.32 4 2 C4.92 2.04 4.92 2.04 5.86 2.08 C12.45 2.54 12.45 2.54 14.88 4.56 C17.91 11.14 19.51 17.1 20.57 24.27 C20.94 26.9 20.94 26.9 21.54 29.02 C22.12 31.5 22.19 33.89 22.31 36.44 C22.8 43.55 24.12 50.42 25.54 57.4 C26.52 62.23 27.26 66.98 27.75 71.88 C28.29 76.43 29.4 80.88 30.38 85.35 C31.3 90.79 31.93 96.12 29 101 C25.95 102.98 23.41 103.13 19.88 102.88 C16 102 16 102 14.42 100.3 C12.82 97.71 11.59 95.1 10.38 92.31 C9.07 88.91 9.07 88.91 7 86 C5.48 85.93 3.96 85.92 2.44 85.94 C1.61 85.95 0.78 85.96 -0.07 85.96 C-0.7 85.98 -1.34 85.99 -2 86 C-2.25 86.66 -2.51 87.33 -2.77 88.01 C-7.58 100.36 -7.58 100.36 -10.79 101.81 C-14.2 102.84 -16.4 103.16 -19.88 102.25 C-22.52 100.69 -23.8 99.74 -24.61 96.72 C-25.01 93.93 -25.17 91.26 -25.19 88.44 C-25.2 87.51 -25.22 86.58 -25.23 85.62 C-24.99 82.84 -24.26 81.46 -23 79 C-22.43 76.54 -21.94 74.11 -21.5 71.62 C-21.37 70.91 -21.24 70.19 -21.11 69.45 C-20.15 64.06 -19.34 58.65 -18.59 53.22 C-17.33 44.15 -15.91 35.1 -14.48 26.06 C-14.06 23.36 -13.67 20.65 -13.29 17.94 C-13.07 16.52 -12.85 15.11 -12.62 13.69 C-12.45 12.5 -12.28 11.3 -12.1 10.07 C-10.58 5.84 -8.68 4.55 -5 2 C-2.12 1.19 -2.12 1.19 0 1 C0 0.67 0 0.34 0 0 Z M20 36 C21 40 21 40 21 40 Z M-2 48 C-1 50 -1 50 -1 50 Z M1 48 C-0.94 56.42 -0.94 56.42 -1 65 C0.49 65.99 0.49 65.99 2 67 C3.32 66.34 4.64 65.68 6 65 C5.52 59.46 4.86 54.26 3 49 C2.34 48.67 1.68 48.34 1 48 Z M-2 51 C-1 54 -1 54 -1 54 Z M-3 57 C-2 60 -2 60 -2 60 Z M26 75 C27 77 27 77 27 77 Z M-5 83 C-4.67 83.66 -4.34 84.32 -4 85 C-3.67 84.34 -3.34 83.68 -3 83 C-3.66 83 -4.32 83 -5 83 Z M-8 92 C-7 95 -7 95 -7 95 Z M-9 95 C-10.36 96.65 -11.69 98.31 -13 100 C-11.68 99.67 -10.36 99.34 -9 99 C-8.67 97.68 -8.34 96.36 -8 95 C-8.33 95 -8.66 95 -9 95 Z M28 97 C27.67 97.99 27.34 98.98 27 100 C27.66 100 28.32 100 29 100 C28.67 99.01 28.34 98.02 28 97 Z " fill="#F5C474" transform="translate(1011,579)"/>
<path d="M0 0 C1.98 0.85 1.98 0.85 4.07 1.15 C6.71 2.02 7.54 3.36 9.13 5.6 C9.63 6.29 10.13 6.98 10.64 7.68 C14.13 13.06 14.13 13.06 13.59 16.2 C13.3 17.48 13.3 17.48 13.01 18.79 C13.21 20.63 13.46 22.46 13.76 24.29 C14.31 29.38 14.31 29.38 11.7 32.85 C10.81 33.49 9.92 34.13 9.01 34.79 C8.35 35.45 7.69 36.11 7.01 36.79 C2.58 36.72 0.12 36.67 -3.37 33.91 C-5.71 29.4 -6.33 24.79 -6.99 19.79 C-8.64 19.79 -10.29 19.79 -11.99 19.79 C-13.29 22.39 -13.12 24.3 -13.12 27.22 C-13.12 28.35 -13.13 29.49 -13.13 30.65 C-13.13 31.89 -13.13 33.12 -13.12 34.38 C-13.13 35.64 -13.13 36.9 -13.13 38.19 C-13.13 40.86 -13.13 43.52 -13.12 46.18 C-13.12 49.6 -13.12 53.02 -13.13 56.43 C-13.13 59.69 -13.13 62.94 -13.12 66.2 C-13.13 67.43 -13.13 68.66 -13.13 69.92 C-13.13 71.06 -13.12 72.19 -13.12 73.36 C-13.12 74.36 -13.12 75.37 -13.12 76.4 C-13.15 78.8 -13.15 78.8 -11.99 80.79 C-10.34 80.79 -8.69 80.79 -6.99 80.79 C-5.9 77.5 -5.85 74.87 -5.74 71.41 C-5.42 67.26 -5.18 65.11 -3.05 61.48 C1.23 59.12 5.21 58.85 10.01 59.79 C12.13 61 12.13 61 14.01 62.79 C14.46 65.15 14.46 65.15 14.4 67.89 C14.39 68.88 14.37 69.86 14.36 70.87 C14.33 71.9 14.29 72.92 14.26 73.98 C14.24 75.01 14.22 76.05 14.2 77.12 C14.16 79.67 14.09 82.23 14.01 84.79 C13.02 84.79 12.03 84.79 11.01 84.79 C12 85.45 12.99 86.11 14.01 86.79 C10.08 94.11 5.99 98.2 -1.99 100.79 C-5.33 101.44 -8.59 101.89 -11.99 101.79 C-12.49 101.29 -12.49 101.29 -12.99 100.79 C-14.17 100.71 -15.34 100.62 -16.55 100.54 C-21.58 99.92 -25.27 98.24 -28.99 94.79 C-34.84 86.89 -34.99 78.26 -34.99 68.79 C-35.65 68.46 -36.31 68.13 -36.99 67.79 C-36.33 67.79 -35.67 67.79 -34.99 67.79 C-35.02 67.24 -35.05 66.69 -35.08 66.12 C-37.27 25.38 -37.27 25.38 -33.65 13.93 C-32.85 11.68 -32.85 11.68 -32.99 8.79 C-31.67 8.13 -30.35 7.47 -28.99 6.79 C-28.99 6.13 -28.99 5.47 -28.99 4.79 C-24.93 -0.18 -18.07 -1.21 -11.99 -2.09 C-7.54 -2.45 -4.13 -1.63 0 0 Z M-15.99 17.79 C-15.66 18.45 -15.33 19.11 -14.99 19.79 C-14.66 19.13 -14.33 18.47 -13.99 17.79 C-14.65 17.79 -15.31 17.79 -15.99 17.79 Z M-16.99 19.79 C-15.99 21.79 -15.99 21.79 -15.99 21.79 Z M9.01 88.79 C9.01 91.79 9.01 91.79 9.01 91.79 Z M7.01 91.79 C5.52 93.77 5.52 93.77 4.01 95.79 C5.33 95.13 6.65 94.47 8.01 93.79 C7.68 93.13 7.35 92.47 7.01 91.79 Z " fill="#F5C577" transform="translate(961.9921875,581.2109375)"/>
<path d="M0 0 C5.32 -0.1 10.64 -0.17 15.96 -0.22 C17.77 -0.24 19.58 -0.27 21.39 -0.3 C23.99 -0.35 26.59 -0.37 29.2 -0.39 C30.41 -0.42 30.41 -0.42 31.64 -0.45 C35.62 -0.45 37.55 -0.28 41.01 1.87 C43 4 43 4 43.59 6.51 C43.55 7.8 43.55 7.8 43.5 9.12 C43.49 9.99 43.48 10.86 43.47 11.76 C43 14 43 14 40 16 C39.67 16.66 39.34 17.32 39 18 C29.1 18.5 29.1 18.5 19 19 C18.96 21.93 18.92 24.86 18.88 27.88 C18.86 28.8 18.84 29.72 18.82 30.67 C18.81 31.39 18.81 32.12 18.8 32.87 C18.79 33.61 18.78 34.35 18.77 35.12 C18.83 37.24 18.83 37.24 21 39 C22.93 39.2 24.87 39.31 26.81 39.38 C30.47 39.65 32.87 39.94 36.25 41.44 C38.96 45.41 38.4 49.34 38 54 C36.68 54.66 35.36 55.32 34 56 C34 56.66 34 57.32 34 58 C30.15 59.28 26.43 59.42 22.4 59.72 C20.05 59.74 20.05 59.74 19 61 C18.72 64.14 18.77 67.29 18.75 70.44 C18.73 71.32 18.71 72.21 18.69 73.12 C18.68 73.97 18.68 74.81 18.67 75.68 C18.66 76.46 18.65 77.24 18.64 78.04 C18.76 78.69 18.88 79.34 19 80 C23.34 82.9 27.72 82.03 32.75 81.75 C38.43 81.58 38.43 81.58 41.48 83.83 C43.45 86.65 43.86 88.56 44 92 C43.13 95.49 42.55 97.45 40 100 C34.63 101.95 28.43 101.22 22.78 101.24 C20.64 101.25 18.5 101.28 16.35 101.31 C14.98 101.32 13.6 101.32 12.23 101.33 C10.36 101.34 10.36 101.34 8.46 101.36 C4.52 100.95 2.23 100.32 -1 98 C-2.82 93.05 -3.29 88.43 -3.26 83.2 C-3.26 82.46 -3.27 81.71 -3.27 80.94 C-3.28 78.5 -3.27 76.05 -3.27 73.61 C-3.27 71.89 -3.27 70.18 -3.27 68.46 C-3.27 64.87 -3.27 61.28 -3.26 57.7 C-3.25 53.12 -3.26 48.54 -3.27 43.97 C-3.28 40.43 -3.27 36.89 -3.27 33.35 C-3.27 31.66 -3.27 29.97 -3.27 28.29 C-3.29 18.55 -3.11 9.33 0 0 Z M40 6 C41 8 41 8 41 8 Z M20 16 C20 16.33 20 16.66 20 17 C24.95 17 29.9 17 35 17 C35 16.67 35 16.34 35 16 C30.05 16 25.1 16 20 16 Z M16 17 C16.33 17.66 16.66 18.32 17 19 C17.33 18.34 17.66 17.68 18 17 C17.34 17 16.68 17 16 17 Z M35 45 C36 48 36 48 36 48 Z M40 95 C39.67 95.99 39.34 96.98 39 98 C39.66 98 40.32 98 41 98 C40.67 97.01 40.34 96.02 40 95 Z " fill="#F5C371" transform="translate(774,581)"/>
<path d="M0 0 C0.67 0.14 1.34 0.27 2.04 0.41 C4.86 1.84 5.57 3.55 6.94 6.38 C7.32 9.77 7.32 9.77 7.32 13.7 C7.33 14.42 7.33 15.14 7.34 15.88 C7.35 17.44 7.35 18.99 7.35 20.55 C7.34 23.01 7.36 25.46 7.38 27.92 C7.42 34.02 7.43 40.12 7.44 46.23 C7.45 51.39 7.48 56.55 7.52 61.72 C7.53 64.14 7.53 66.57 7.52 68.99 C7.53 70.47 7.54 71.95 7.55 73.43 C7.55 74.73 7.56 76.02 7.56 77.36 C7.68 78.35 7.81 79.35 7.94 80.38 C10.98 82.41 11.54 82.62 14.95 82.57 C15.71 82.56 16.46 82.56 17.24 82.55 C18.03 82.53 18.82 82.52 19.62 82.5 C20.42 82.49 21.22 82.48 22.04 82.47 C24.01 82.45 25.97 82.41 27.94 82.38 C29.86 85.63 30.26 88.18 30.31 91.94 C30.34 92.89 30.37 93.84 30.4 94.82 C29.94 97.38 29.94 97.38 28.1 99.15 C22.59 102.27 16.76 101.56 10.6 101.56 C8.58 101.56 6.56 101.58 4.54 101.6 C2.62 101.6 2.62 101.6 0.66 101.61 C-0.51 101.61 -1.68 101.61 -2.88 101.62 C-6.02 101.38 -8.23 100.72 -11.06 99.38 C-10.57 98.38 -10.57 98.38 -10.06 97.38 C-11.38 96.72 -12.7 96.06 -14.06 95.38 C-14.13 80.15 -14.13 64.93 -14.07 49.7 C-14.07 47.53 -14.06 45.36 -14.05 43.19 C-14.04 37.39 -13.99 31.59 -13.91 25.79 C-13.89 24.02 -13.87 22.25 -13.87 20.48 C-13.86 18.02 -13.82 15.57 -13.77 13.11 C-13.77 12.39 -13.78 11.68 -13.78 10.94 C-13.67 7.06 -13.15 5.48 -10.65 2.44 C-6.94 -0.52 -4.59 -1.04 0 0 Z M3.94 8.38 C4.94 11.38 4.94 11.38 4.94 11.38 Z M3.94 58.38 C4.94 60.38 4.94 60.38 4.94 60.38 Z M3.94 69.38 C4.94 71.38 4.94 71.38 4.94 71.38 Z M18.94 98.38 C18.94 98.71 18.94 99.03 18.94 99.38 C20.92 99.38 22.9 99.38 24.94 99.38 C24.94 99.04 24.94 98.72 24.94 98.38 C22.96 98.38 20.98 98.38 18.94 98.38 Z " fill="#F5C26F" transform="translate(1067.0625,580.625)"/>
<path d="M0 0 C1.43 0.06 1.43 0.06 2.88 0.12 C3.83 0.14 4.77 0.16 5.75 0.19 C8.47 0.56 10.15 1.06 12.44 2.56 C14.84 6.15 14.88 8.9 15.05 13.07 C15.09 13.89 15.13 14.7 15.16 15.54 C15.68 28.57 15.67 41.62 15.68 54.66 C15.69 58.56 15.71 62.47 15.74 66.37 C15.76 69.41 15.76 72.45 15.76 75.49 C15.77 76.93 15.78 78.37 15.79 79.81 C15.91 93.96 15.91 93.96 12.44 99.56 C7.96 102 4.33 101.74 -0.56 100.56 C-3.27 98.99 -4.36 98.16 -5.35 95.15 C-5.48 94.27 -5.61 93.4 -5.75 92.5 C-6.27 88.91 -6.27 88.91 -7.56 85.56 C-7.27 83.19 -6.93 80.85 -6.56 78.5 C-5.57 71.68 -5.55 65.26 -6.19 58.41 C-6.47 55.28 -6.55 52.51 -6.07 49.4 C-5.48 44.98 -5.49 40.75 -5.57 36.3 C-5.58 34.52 -5.6 32.75 -5.62 30.97 C-5.65 28.19 -5.68 25.42 -5.73 22.64 C-5.77 19.94 -5.8 17.25 -5.82 14.55 C-5.84 13.72 -5.85 12.9 -5.87 12.04 C-5.9 6.98 -5.88 1.28 0 0 Z M11.44 8.56 C12.44 10.56 12.44 10.56 12.44 10.56 Z M11.44 13.56 C12.44 17.56 12.44 17.56 12.44 17.56 Z M11.44 22.56 C11.44 24.54 11.44 26.52 11.44 28.56 C11.77 28.56 12.1 28.56 12.44 28.56 C12.44 26.58 12.44 24.6 12.44 22.56 C12.11 22.56 11.78 22.56 11.44 22.56 Z M11.44 35.56 C12.44 38.56 12.44 38.56 12.44 38.56 Z M10.44 95.56 C10.44 96.22 10.44 96.88 10.44 97.56 C9.45 98.05 9.45 98.05 8.44 98.56 C9.43 98.56 10.42 98.56 11.44 98.56 C11.11 97.57 10.78 96.58 10.44 95.56 Z " fill="#F5C370" transform="translate(899.55859375,580.44140625)"/>
<path d="M0 0 C3.11 1.15 5.28 2.33 7.38 4.94 C7.56 7.62 7.56 7.62 7.38 9.94 C7.71 9.94 8.03 9.94 8.38 9.94 C8.38 29.6 8.38 49.27 8.38 68.94 C7.72 68.94 7.05 68.94 6.38 68.94 C6.4 69.83 6.43 70.72 6.45 71.64 C6.54 74.96 6.6 78.27 6.65 81.59 C6.67 83.02 6.71 84.46 6.75 85.89 C6.81 87.96 6.84 90.02 6.86 92.08 C6.89 93.32 6.92 94.56 6.94 95.84 C6.38 98.94 6.38 98.94 4.01 100.85 C1.08 102.06 -0.63 102.18 -3.75 101.81 C-4.6 101.73 -5.45 101.64 -6.32 101.55 C-8.96 100.85 -9.98 100.09 -11.62 97.94 C-11.98 96.28 -12.32 94.61 -12.62 92.94 C-13.29 92.61 -13.94 92.28 -14.62 91.94 C-14.46 90.94 -14.3 89.95 -14.13 88.92 C-13.58 85 -13.47 81.11 -13.47 77.15 C-13.46 76.41 -13.46 75.67 -13.45 74.9 C-13.44 73.3 -13.43 71.69 -13.43 70.09 C-13.41 67.55 -13.39 65.01 -13.37 62.47 C-13.31 55.26 -13.26 48.04 -13.22 40.83 C-13.2 36.4 -13.17 31.98 -13.12 27.56 C-13.11 25.88 -13.1 24.19 -13.1 22.51 C-13.09 20.16 -13.07 17.81 -13.04 15.46 C-13.04 14.77 -13.05 14.08 -13.05 13.37 C-12.95 7.67 -11.11 4.68 -7.5 0.44 C-4.13 -1.32 -3.5 -1.09 0 0 Z M4.38 4.94 C5.38 7.94 5.38 7.94 5.38 7.94 Z M4.38 95.94 C4.38 96.6 4.38 97.26 4.38 97.94 C3.38 98.43 3.38 98.43 2.38 98.94 C3.37 98.94 4.36 98.94 5.38 98.94 C5.04 97.95 4.72 96.96 4.38 95.94 Z " fill="#F5C26E" transform="translate(509.625,580.0625)"/>
<path d="M0 0 C1 2 1 2 0.54 4.52 C-0.16 9 0.1 13.23 0.38 17.75 C0.42 18.61 0.46 19.47 0.51 20.36 C0.63 24.83 0.63 24.83 2 29 C2.99 28.34 3.98 27.68 5 27 C7.9 26.67 10.71 26.44 13.62 26.31 C14.84 26.25 14.84 26.25 16.08 26.19 C21.5 25.96 26.63 26.11 32 27 C32 27.33 32 27.66 32 28 C30.9 28.01 30.9 28.01 29.77 28.03 C26.43 28.08 23.09 28.17 19.75 28.25 C18.59 28.26 17.43 28.28 16.24 28.29 C14.57 28.34 14.57 28.34 12.86 28.39 C11.83 28.41 10.81 28.43 9.75 28.45 C6.16 29.17 5.18 30.06 3 33 C2.62 35.99 2.48 38.61 2.53 41.59 C2.53 42.46 2.53 43.32 2.52 44.21 C2.52 47.07 2.55 49.93 2.57 52.79 C2.58 54.77 2.58 56.76 2.58 58.74 C2.59 62.9 2.61 67.06 2.64 71.22 C2.68 76.55 2.7 81.89 2.71 87.23 C2.72 92.31 2.74 97.39 2.76 102.48 C2.77 103.45 2.77 104.42 2.77 105.43 C2.78 108.17 2.8 110.92 2.82 113.67 C2.83 114.49 2.83 115.3 2.83 116.15 C2.78 120.21 2.78 120.21 4 124 C5.13 123.98 6.27 123.96 7.44 123.94 C10.42 123.93 13.29 124.12 16.25 124.5 C26.08 125.65 34.57 125.12 44 122 C41.37 125.94 39.01 126.57 34.47 127.54 C29.87 128.15 25.33 128.22 20.69 128.25 C19.34 128.28 19.34 128.28 17.96 128.31 C17.07 128.32 16.18 128.32 15.26 128.33 C14.47 128.34 13.67 128.35 12.85 128.36 C8.7 127.84 4.92 126.42 1 125 C0.92 131.34 0.87 137.67 0.84 144.01 C0.82 146.16 0.8 148.32 0.77 150.47 C0.74 153.57 0.72 156.67 0.71 159.77 C0.69 160.73 0.68 161.69 0.66 162.69 C0.66 163.59 0.66 164.49 0.66 165.42 C0.65 166.21 0.65 167 0.64 167.81 C1.09 170.53 2.22 171.94 4 174 C2.02 174 0.04 174 -2 174 C-2.79 167.76 -3.13 161.72 -3.06 155.43 C-3.05 153.57 -3.05 151.71 -3.04 149.85 C-3.03 148.87 -3.02 147.9 -3.02 146.9 C-2.93 132.46 -2.94 118.03 -3.43 103.6 C-4.08 83.94 -4.21 64.27 -4.29 44.61 C-4.3 41.04 -4.33 37.47 -4.36 33.9 C-4.4 29.66 -4.42 25.41 -4.42 21.17 C-4.42 19.57 -4.43 17.98 -4.45 16.39 C-4.48 14.19 -4.48 11.99 -4.47 9.79 C-4.48 8.55 -4.48 7.3 -4.49 6.02 C-4 3 -4 3 -1.97 1.08 C-1.32 0.72 -0.67 0.37 0 0 Z " fill="#F5F3E5" transform="translate(243,554)"/>
<path d="M0 0 C2.63 1.18 3.47 2.42 4.96 4.88 C5.34 7.66 5.34 7.66 5.35 10.89 C5.35 12.1 5.36 13.31 5.37 14.56 C5.37 15.86 5.36 17.16 5.36 18.51 C5.36 19.86 5.36 21.22 5.36 22.57 C5.37 25.41 5.36 28.24 5.35 31.08 C5.33 34.71 5.34 38.35 5.36 41.98 C5.37 44.78 5.37 47.57 5.36 50.37 C5.36 52.36 5.36 54.35 5.37 56.34 C5.36 57.55 5.35 58.76 5.35 60 C5.34 61.07 5.34 62.13 5.34 63.23 C4.96 65.88 4.96 65.88 3.65 67.73 C0.84 69.64 -1.75 69.17 -5.04 68.88 C-8.04 66.88 -8.04 66.88 -8.77 64.85 C-10.4 55.09 -10.31 45.37 -10.25 35.5 C-10.23 32.49 -10.23 29.48 -10.23 26.46 C-10.22 24.53 -10.22 22.6 -10.21 20.67 C-10.21 19.33 -10.21 19.33 -10.21 17.96 C-10.12 6.12 -10.12 6.12 -7.55 3.16 C-6.65 2.56 -6.65 2.56 -5.73 1.94 C-5.14 1.52 -4.54 1.1 -3.93 0.66 C-2.04 -0.12 -2.04 -0.12 0 0 Z M-3.73 4.19 C-6.09 7.22 -6.18 9.2 -6.2 12.98 C-6.21 14.05 -6.22 15.11 -6.23 16.21 C-6.24 17.37 -6.24 18.52 -6.25 19.71 C-6.25 20.89 -6.26 22.08 -6.26 23.3 C-6.27 25.81 -6.28 28.32 -6.28 30.83 C-6.29 34.67 -6.32 38.5 -6.36 42.34 C-6.36 44.78 -6.37 47.21 -6.37 49.65 C-6.38 50.8 -6.4 51.95 -6.41 53.13 C-6.41 54.2 -6.4 55.28 -6.4 56.39 C-6.4 57.33 -6.41 58.27 -6.41 59.24 C-5.97 62.37 -4.82 64.29 -3.04 66.88 C-0.61 66.61 -0.61 66.61 1.96 65.88 C4.15 62.58 4.21 61.6 4.22 57.77 C4.22 56.73 4.23 55.69 4.23 54.61 C4.23 53.49 4.23 52.36 4.22 51.2 C4.22 50.05 4.23 48.89 4.23 47.69 C4.23 45.24 4.23 42.79 4.22 40.34 C4.21 36.59 4.22 32.85 4.23 29.1 C4.23 26.72 4.23 24.34 4.22 21.95 C4.23 20.83 4.23 19.72 4.23 18.56 C4.23 11.02 4.23 11.02 1.96 3.88 C-0.6 2.48 -1.41 2.39 -3.73 4.19 Z " fill="#F5F3E5" transform="translate(333.04296875,596.12109375)"/>
<path d="M0 0 C3.27 3.27 3.12 6.28 3.15 10.72 C3.15 11.5 3.15 12.28 3.15 13.08 C3.15 14.31 3.15 14.31 3.16 15.57 C3.16 18.3 3.17 21.02 3.17 23.75 C3.17 25.64 3.17 27.53 3.18 29.42 C3.18 33.39 3.19 37.36 3.19 41.32 C3.19 46.41 3.2 51.49 3.22 56.58 C3.23 60.49 3.23 64.39 3.23 68.3 C3.23 70.18 3.23 72.05 3.24 73.93 C3.25 76.55 3.25 79.17 3.24 81.79 C3.25 82.57 3.25 83.34 3.26 84.14 C3.24 87.91 3.12 90.8 1 94 C0.67 94 0.34 94 0 94 C-1 83.66 -1.15 73.41 -1.13 63.03 C-1.13 61.33 -1.13 59.63 -1.14 57.93 C-1.14 54.4 -1.14 50.87 -1.13 47.34 C-1.12 42.82 -1.13 38.3 -1.13 33.77 C-1.14 30.28 -1.14 26.79 -1.13 23.29 C-1.13 21.62 -1.13 19.95 -1.14 18.29 C-1.14 15.96 -1.13 13.64 -1.13 11.32 C-1.13 10 -1.13 8.68 -1.13 7.32 C-1.03 4.66 -0.8 2.52 0 0 Z " fill="#F5F3E5" transform="translate(755,584)"/>
<path d="M0 0 C1.46 1.03 1.46 1.03 3 3 C3.4 5.58 3.6 7.92 3.67 10.52 C3.7 11.33 3.74 12.14 3.77 12.98 C4.22 26.01 4.22 39.06 4.24 52.1 C4.25 56 4.27 59.91 4.3 63.81 C4.32 66.85 4.32 69.89 4.32 72.93 C4.33 74.37 4.33 75.81 4.35 77.25 C4.47 91.41 4.47 91.41 1 97 C-3.48 99.44 -7.1 99.13 -12 98 C-12.66 97.34 -13.32 96.68 -14 96 C-9.03 95.09 -4.97 95.09 0 96 C-0.19 94.87 -0.37 93.73 -0.56 92.56 C-0.71 91.39 -0.85 90.21 -1 89 C-0.5 88.5 -0.5 88.5 0 88 C-0.12 86.5 -0.29 84.99 -0.5 83.5 C-0.71 82.01 -0.88 80.5 -1 79 C-0.5 78.5 -0.5 78.5 0 78 C0.09 75.85 0.11 73.69 0.1 71.54 C0.1 70.87 0.09 70.19 0.09 69.49 C0.09 68.02 0.08 66.55 0.08 65.08 C0.06 62.75 0.06 60.43 0.05 58.1 C0.04 52.31 0.01 46.52 -0.01 40.73 C-0.03 35.85 -0.05 30.97 -0.06 26.09 C-0.06 23.8 -0.07 21.51 -0.09 19.21 C-0.09 17.8 -0.09 16.39 -0.1 14.98 C-0.11 13.13 -0.11 13.13 -0.11 11.25 C-0.01 8.37 0.33 5.8 1 3 C0.34 3 -0.32 3 -1 3 C-0.67 2.01 -0.34 1.02 0 0 Z " fill="#F5EED9" transform="translate(911,583)"/>
<path d="M0 0 C1.85 3.98 2.36 7.44 2.62 11.81 C2.7 12.97 2.77 14.14 2.85 15.33 C2.9 16.21 2.95 17.09 3 18 C-0.15 15.47 -0.59 13.23 -1.19 9.31 C-1.35 8.32 -1.5 7.32 -1.67 6.3 C-1.78 5.54 -1.89 4.78 -2 4 C-3.65 4 -5.3 4 -7 4 C-8.3 6.6 -8.13 8.51 -8.13 11.43 C-8.13 13.13 -8.13 13.13 -8.14 14.87 C-8.14 16.71 -8.14 16.71 -8.13 18.59 C-8.13 20.48 -8.13 20.48 -8.14 22.4 C-8.14 25.07 -8.14 27.73 -8.13 30.39 C-8.12 33.81 -8.13 37.23 -8.13 40.64 C-8.14 43.9 -8.14 47.15 -8.13 50.41 C-8.13 51.64 -8.14 52.87 -8.14 54.13 C-8.14 55.27 -8.13 56.4 -8.13 57.57 C-8.13 58.57 -8.13 59.58 -8.13 60.61 C-8.16 63.02 -8.16 63.02 -7 65 C-5.35 65 -3.7 65 -2 65 C-0.59 60.77 -0.67 56.57 -0.48 52.13 C0.02 48.84 0.78 47.42 3 45 C3.66 45.33 4.32 45.66 5 46 C4.34 46.99 3.68 47.98 3 49 C2.48 52.64 2.12 56.26 1.79 59.93 C1.2 65.8 1.2 65.8 -1 68 C-7.32 68.34 -7.32 68.34 -10 67 C-13.15 59.41 -13.16 51.36 -13.17 43.28 C-13.17 42.37 -13.17 41.47 -13.18 40.54 C-13.18 38.64 -13.19 36.74 -13.19 34.84 C-13.19 31.94 -13.21 29.05 -13.22 26.15 C-13.23 24.3 -13.23 22.44 -13.23 20.59 C-13.24 19.73 -13.24 18.87 -13.25 17.99 C-13.23 11.88 -13.08 6.25 -8.75 1.56 C-5.56 -0.25 -3.61 -0.34 0 0 Z " fill="#F5F3E5" transform="translate(957,597)"/>
<path d="M0 0 C1.58 -0.08 3.17 -0.14 4.75 -0.19 C6.07 -0.24 6.07 -0.24 7.42 -0.29 C10.5 0.06 11.79 0.86 14 3 C15.28 6.84 15.16 10.46 15.16 14.46 C15.17 15.33 15.17 16.19 15.18 17.08 C15.19 19.94 15.2 22.8 15.2 25.66 C15.21 27.64 15.21 29.62 15.22 31.61 C15.23 35.77 15.24 39.93 15.24 44.09 C15.25 49.42 15.27 54.76 15.3 60.1 C15.32 64.19 15.32 68.29 15.32 72.39 C15.33 74.36 15.33 76.32 15.35 78.29 C15.36 81.04 15.36 83.79 15.36 86.54 C15.37 87.35 15.37 88.17 15.38 89.01 C15.34 94.54 15.34 94.54 13.48 97.03 C12.99 97.35 12.5 97.67 12 98 C12.01 96.86 12.02 95.71 12.04 94.54 C12.04 93.04 12.05 91.55 12.06 90.06 C12.07 89.31 12.08 88.55 12.09 87.78 C12.1 85.85 12.05 83.92 12 82 C11.67 81.67 11.34 81.34 11 81 C10.91 79.37 10.88 77.74 10.89 76.11 C10.89 75.07 10.89 74.03 10.89 72.96 C10.89 71.83 10.9 70.69 10.9 69.53 C10.9 68.37 10.91 67.22 10.91 66.03 C10.91 62.34 10.92 58.64 10.94 54.94 C10.94 52.44 10.95 49.94 10.95 47.44 C10.96 41.29 10.98 35.15 11 29 C11.66 29 12.32 29 13 29 C12.75 27.11 12.75 27.11 12.5 25.19 C11.71 18.08 11.41 11.01 13 4 C12.34 4 11.68 4 11 4 C11 3.34 11 2.68 11 2 C7.7 2 4.4 2 1 2 C0.67 1.34 0.34 0.68 0 0 Z " fill="#F5F2E4" transform="translate(569,581)"/>
<path d="M0 0 C3 1.69 3 1.69 6 4 C6.38 6.75 6.38 6.75 6 9 C4 6 4 6 4 4 C1.69 4 -0.62 4 -3 4 C-3 24.13 -3 44.26 -3 65 C1.61 66.45 1.61 66.45 4 65 C4.66 64.01 5.32 63.02 6 62 C6.04 63.67 6.04 65.33 6 67 C5 68 5 68 3.04 68.13 C2.24 68.13 1.45 68.13 0.62 68.12 C-0.17 68.13 -0.96 68.13 -1.77 68.13 C-4 68 -4 68 -7 67 C-8.03 60.25 -8.13 53.66 -8.1 46.84 C-8.1 45.13 -8.1 45.13 -8.09 43.38 C-8.09 39.75 -8.08 36.13 -8.06 32.5 C-8.06 30.03 -8.05 27.56 -8.05 25.09 C-8.04 19.06 -8.02 13.03 -8 7 C-7.34 7 -6.68 7 -6 7 C-5.75 6.4 -5.5 5.8 -5.25 5.19 C-3.84 2.71 -2.35 1.57 0 0 Z " fill="#F5F3E5" transform="translate(622,596)"/>
<path d="M0 0 C0.77 0.27 1.55 0.55 2.34 0.83 C3.12 1.09 3.89 1.36 4.69 1.62 C6.97 2.7 8.28 3.67 9.84 5.64 C10.03 8.33 10.03 8.33 9.84 10.64 C10.17 10.64 10.5 10.64 10.84 10.64 C10.84 30.31 10.84 49.98 10.84 69.64 C10.18 69.64 9.52 69.64 8.84 69.64 C8.84 79.54 8.84 89.44 8.84 99.64 C8.51 99.64 8.18 99.64 7.84 99.64 C7.12 93.77 6.7 88.06 6.71 82.14 C6.71 80.95 6.71 80.95 6.71 79.73 C6.7 77.13 6.71 74.53 6.71 71.93 C6.71 70.12 6.71 68.3 6.71 66.48 C6.71 62.68 6.71 58.89 6.71 55.1 C6.72 50.23 6.72 45.36 6.71 40.5 C6.71 36.75 6.71 33 6.71 29.26 C6.71 27.46 6.71 25.67 6.71 23.87 C6.7 21.37 6.71 18.87 6.71 16.37 C6.71 15.63 6.71 14.89 6.71 14.12 C6.72 11.02 6.85 8.61 7.84 5.64 C3.2 3.25 -1.07 3.44 -6.16 3.64 C-4.72 0.78 -3.27 -0.54 0 0 Z " fill="#BAD5E0" transform="translate(507.15625,579.35546875)"/>
<path d="M0 0 C5.95 0.3 9.87 2.9 14 7 C17.55 12.39 19.12 17.54 19.16 23.98 C19.17 25.21 19.18 26.45 19.19 27.71 C19.2 29.06 19.2 30.41 19.2 31.76 C19.21 33.14 19.21 34.53 19.22 35.92 C19.23 38.83 19.24 41.74 19.24 44.65 C19.25 48.36 19.27 52.07 19.3 55.77 C19.32 58.64 19.32 61.51 19.32 64.38 C19.33 65.74 19.33 67.11 19.35 68.47 C19.42 76.27 19.16 82.81 16 90 C15.01 90.5 15.01 90.5 14 91 C14.16 90.44 14.32 89.89 14.48 89.31 C15.04 86.83 15.21 84.52 15.32 81.97 C15.36 81.02 15.4 80.06 15.44 79.07 C15.5 77.58 15.5 77.58 15.56 76.06 C15.61 75.07 15.65 74.08 15.69 73.06 C16.01 66.53 16.01 66.53 16 60 C15.67 59.67 15.34 59.34 15 59 C14.9 57.09 14.87 55.17 14.87 53.25 C14.87 52.08 14.86 50.92 14.86 49.72 C14.87 48.49 14.87 47.26 14.88 46 C14.87 44.77 14.87 43.55 14.86 42.28 C14.86 41.12 14.87 39.95 14.87 38.75 C14.87 37.67 14.87 36.59 14.87 35.48 C15 33 15 33 16 32 C15.91 30.45 15.75 28.91 15.56 27.38 C15.09 23.22 15 19.18 15 15 C14.71 13.32 14.4 11.65 14 10 C13.34 10 12.68 10 12 10 C11.67 9.01 11.34 8.02 11 7 C9 5.79 9 5.79 7 5 C7 4.34 7 3.68 7 3 C4.69 2.34 2.38 1.68 0 1 C0 0.67 0 0.34 0 0 Z " fill="#F5F3E5" transform="translate(401,581)"/>
<path d="M0 0 C3.37 0.32 6.32 0.7 9.44 2.06 C11.96 5.19 11.26 8.08 11 12 C10.67 12 10.34 12 10 12 C9.69 10.87 9.38 9.73 9.06 8.56 C8.37 5.21 8.37 5.21 7 4 C4.5 3.83 4.5 3.83 2 4 C0.49 5.51 0.79 6.92 0.68 9.04 C0.64 9.84 0.6 10.65 0.56 11.49 C0.52 12.34 0.48 13.19 0.44 14.06 C0.39 14.92 0.35 15.77 0.31 16.65 C0.2 18.77 0.1 20.88 0 23 C-0.66 23 -1.32 23 -2 23 C-1.67 26.63 -1.34 30.26 -1 34 C-0.67 34 -0.34 34 0 34 C0 44.23 0 54.46 0 65 C5.98 65.2 5.98 65.2 10 62 C9.12 65.88 9.12 65.88 8 67 C6 67.2 6 67.2 3.56 67.25 C2.76 67.28 1.96 67.3 1.13 67.33 C0.43 67.22 -0.28 67.11 -1 67 C-3.85 62.73 -4.12 58.93 -4.18 53.88 C-4.19 52.88 -4.2 51.89 -4.22 50.86 C-4.23 49.27 -4.23 49.27 -4.24 47.64 C-4.25 46.53 -4.25 45.42 -4.26 44.29 C-4.28 41.95 -4.29 39.61 -4.3 37.27 C-4.31 34.89 -4.33 32.5 -4.36 30.12 C-4.4 26.67 -4.42 23.21 -4.43 19.76 C-4.44 18.7 -4.46 17.64 -4.48 16.55 C-4.46 9.91 -3.45 5.71 0 0 Z " fill="#F5ECD5" transform="translate(851,597)"/>
<path d="M0 0 C0.33 0 0.66 0 1 0 C1.19 0.76 1.37 1.52 1.56 2.3 C6.14 21.24 6.14 21.24 11.58 39.94 C12.66 43.4 13.23 46.37 13 50 C11.2 46.71 10.14 43.4 9.09 39.81 C8.74 38.62 8.39 37.43 8.03 36.2 C7.67 34.96 7.31 33.72 6.94 32.44 C6.22 29.98 5.5 27.52 4.78 25.06 C4.46 23.97 4.14 22.88 3.82 21.76 C3.24 19.83 2.64 17.91 2 16 C1.99 16.97 1.97 17.94 1.96 18.93 C1.9 22.55 1.82 26.16 1.74 29.77 C1.7 31.33 1.68 32.89 1.65 34.45 C1.62 36.7 1.57 38.95 1.51 41.2 C1.51 41.89 1.5 42.58 1.49 43.29 C1.35 47.88 0.31 51.04 -2 55 C-2.66 54.67 -3.32 54.34 -4 54 C-3.5 53.5 -3.5 53.5 -3 53 C-2.94 50.01 -2.93 47.05 -2.97 44.07 C-2.99 42.2 -3 40.34 -3.01 38.47 C-3.03 35.53 -3.06 32.59 -3.1 29.64 C-3.13 26.81 -3.14 23.97 -3.16 21.13 C-3.17 20.26 -3.19 19.4 -3.2 18.51 C-3.23 12.51 -2.59 6.8 -1 1 C-0.67 0.67 -0.34 0.34 0 0 Z " fill="#F5F3E5" transform="translate(550,625)"/>
<path d="M0 0 C1.01 0.22 1.01 0.22 2.04 0.44 C4.83 1.91 5.56 3.61 6.94 6.44 C7.32 9.83 7.32 9.83 7.32 13.75 C7.33 14.83 7.33 14.83 7.34 15.93 C7.35 17.48 7.35 19.03 7.35 20.58 C7.34 23.03 7.36 25.49 7.38 27.94 C7.42 34.03 7.43 40.13 7.44 46.22 C7.45 51.38 7.48 56.53 7.52 61.69 C7.53 64.11 7.53 66.52 7.52 68.94 C7.53 70.42 7.54 71.9 7.55 73.38 C7.55 74.68 7.56 75.97 7.56 77.3 C7.66 80.43 7.66 80.43 9.46 82.38 C9.95 82.73 10.44 83.08 10.94 83.44 C7.47 82.94 7.47 82.94 3.94 82.44 C3.94 81.76 3.95 81.09 3.95 80.39 C3.97 77.28 3.99 74.17 4 71.06 C4.01 70 4.02 68.94 4.03 67.85 C4.03 66.8 4.03 65.75 4.04 64.66 C4.04 63.71 4.05 62.76 4.05 61.78 C3.96 59.04 3.73 56.41 3.42 53.69 C2.87 48.47 2.95 43.39 3.16 38.16 C3.23 36.25 3.29 34.33 3.35 32.42 C3.46 29.44 3.56 26.46 3.68 23.49 C3.79 20.59 3.89 17.69 3.98 14.79 C4.02 13.89 4.06 13 4.1 12.08 C4.12 11.25 4.15 10.42 4.17 9.57 C4.21 8.48 4.21 8.48 4.25 7.36 C3.84 4.84 2.92 3.99 0.94 2.44 C-1.33 1.86 -1.33 1.86 -3.75 1.75 C-4.96 1.65 -4.96 1.65 -6.2 1.55 C-6.81 1.51 -7.43 1.48 -8.06 1.44 C-5.07 -0.34 -3.4 -0.83 0 0 Z " fill="#F5F3E5" transform="translate(1067.0625,580.5625)"/>
<path d="M0 0 C6.75 0.75 6.75 0.75 9 3 C9.12 6.62 9.12 6.62 9 10 C8.67 10 8.34 10 8 10 C7.67 7.69 7.34 5.38 7 3 C5.02 3.33 3.04 3.66 1 4 C-1.43 9.69 -1.29 15.06 -1.27 21.13 C-1.27 22.2 -1.27 23.26 -1.27 24.36 C-1.27 26.61 -1.27 28.86 -1.26 31.11 C-1.25 34.55 -1.26 37.99 -1.27 41.44 C-1.27 43.63 -1.27 45.81 -1.27 48 C-1.27 49.03 -1.27 50.06 -1.28 51.12 C-1.27 52.08 -1.27 53.04 -1.26 54.03 C-1.26 54.87 -1.26 55.71 -1.25 56.58 C-0.96 59.38 -0.29 61.49 1 64 C3.55 64.89 3.55 64.89 6 65 C6.66 63.35 7.32 61.7 8 60 C8.33 60 8.66 60 9 60 C9.12 62.88 9.12 62.88 9 66 C7 68 7 68 3.62 68.38 C0 68 0 68 -2.18 66.42 C-4.62 63.17 -4.6 60.98 -4.74 56.94 C-4.77 56.24 -4.79 55.55 -4.82 54.83 C-4.91 52.55 -4.96 50.28 -5 48 C-5.02 47.23 -5.03 46.47 -5.05 45.68 C-5.15 40.91 -5.19 36.14 -5.19 31.37 C-5.19 28.91 -5.21 26.45 -5.22 23.99 C-5.23 22.4 -5.23 20.81 -5.23 19.21 C-5.24 18.49 -5.24 17.77 -5.25 17.02 C-5.22 10.61 -4.33 4.92 0 0 Z " fill="#F5F3E5" transform="translate(391,597)"/>
<path d="M0 0 C73.92 0 147.84 0 224 0 C224 0.33 224 0.66 224 1 C150.08 1 76.16 1 0 1 C0 0.67 0 0.34 0 0 Z " fill="#F5F3E5" transform="translate(231,744)"/>
<path d="M0 0 C5.88 -0.23 8.72 0.16 13.25 3.81 C15 6 15 6 15.38 8.5 C14.98 11.12 14.22 12.67 13 15 C12.25 16.57 11.5 18.13 10.76 19.7 C10.33 20.6 9.9 21.5 9.46 22.43 C8.58 24.29 7.69 26.16 6.81 28.03 C6.38 28.93 5.95 29.83 5.51 30.77 C4.88 32.11 4.88 32.11 4.24 33.47 C3 36 3 36 1.75 38.1 C-1.46 43.61 -1.53 47.84 0 54 C1.55 58.6 3.4 63.04 5.31 67.5 C6.29 69.82 7.26 72.15 8.24 74.47 C9.57 77.62 10.9 80.76 12.24 83.91 C12.6 84.78 12.97 85.65 13.34 86.55 C13.66 87.31 13.97 88.06 14.3 88.84 C15.43 92.32 15.27 95.37 15 99 C13.03 95.33 11.62 91.46 10.19 87.56 C8.65 83.42 7.12 79.27 5.5 75.16 C4.82 73.44 4.82 73.44 4.12 71.69 C3.72 70.66 3.31 69.63 2.88 68.57 C2 66 2 66 2 63 C1.34 62.67 0.68 62.34 0 62 C-1.07 59.74 -1.07 59.74 -2.12 56.88 C-2.48 55.94 -2.83 55.01 -3.2 54.05 C-5.01 47.18 -3.76 42.54 -0.44 36.44 C-0.08 35.75 0.28 35.06 0.65 34.35 C2.09 31.57 3.57 28.8 5.05 26.04 C8.79 19.05 11.86 13.08 12 5 C7.71 5 3.42 5 -1 5 C-0.67 4.01 -0.34 3.02 0 2 C0.99 1.67 1.98 1.34 3 1 C2.01 0.67 1.02 0.34 0 0 Z " fill="#F5F3E5" transform="translate(470,579)"/>
<path d="M0 0 C5.06 2.31 7.77 5.96 10 11 C11.49 18.01 11.16 25.43 11.17 32.56 C11.17 33.74 11.17 34.93 11.18 36.15 C11.18 38.64 11.19 41.13 11.19 43.63 C11.19 47.42 11.21 51.22 11.22 55.01 C11.23 57.44 11.23 59.88 11.23 62.31 C11.24 63.43 11.24 64.56 11.25 65.71 C11.2 82.8 11.2 82.8 7 87 C7.07 85.85 7.14 84.7 7.22 83.52 C7.95 70.44 8.14 57.36 8.18 44.27 C8.18 42.31 8.19 40.36 8.21 38.4 C9.11 17.69 9.11 17.69 0 0 Z " fill="#F5F3E5" transform="translate(346,584)"/>
<path d="M0 0 C0.66 0 1.32 0 2 0 C2.17 1.14 2.17 1.14 2.34 2.3 C2.85 5.81 3.36 9.31 3.88 12.81 C4.05 14.01 4.22 15.2 4.4 16.44 C5.35 22.86 6.37 29.24 7.64 35.6 C8.02 38.1 8.06 40.47 8 43 C6.26 39.77 5.11 36.49 4 33 C3 36 2.84 38.3 2.69 41.44 C2.38 44.92 2.22 46.65 0.31 49.62 C-3.51 51.9 -6.49 52.37 -10.81 51.31 C-13 50 -13 50 -13.81 47.88 C-13.87 47.26 -13.94 46.64 -14 46 C-13.34 46.33 -12.68 46.66 -12 47 C-12 47.66 -12 48.32 -12 49 C-6.55 48.5 -6.55 48.5 -1 48 C-1.01 46.98 -1.02 45.96 -1.04 44.91 C-1.09 37.12 -0.96 29.4 -0.44 21.62 C-0.04 15.63 -0.03 9.95 -0.84 3.97 C-1 2 -1 2 0 0 Z " fill="#F5F3E5" transform="translate(705,630)"/>
<path d="M0 0 C0.33 0 0.66 0 1 0 C1 29.04 1 58.08 1 88 C0.67 88 0.34 88 0 88 C-0.03 87.1 -0.05 86.19 -0.08 85.26 C-0.17 81.92 -0.27 78.58 -0.37 75.24 C-0.42 73.79 -0.46 72.34 -0.5 70.89 C-0.55 68.82 -0.62 66.74 -0.68 64.66 C-0.72 63.41 -0.76 62.16 -0.79 60.87 C-0.68 58.1 -0.68 58.1 -2 57 C-2.1 55.36 -2.14 53.72 -2.15 52.08 C-2.15 51.04 -2.16 49.99 -2.16 48.91 C-2.17 47.77 -2.17 46.63 -2.17 45.45 C-2.17 44.28 -2.17 43.12 -2.18 41.92 C-2.18 39.45 -2.19 36.97 -2.19 34.5 C-2.19 30.71 -2.21 26.93 -2.22 23.14 C-2.23 20.74 -2.23 18.35 -2.23 15.95 C-2.24 14.81 -2.24 13.68 -2.25 12.51 C-2.25 11.45 -2.25 10.39 -2.24 9.3 C-2.24 8.37 -2.25 7.44 -2.25 6.49 C-1.99 3.88 -1.32 2.24 0 0 Z " fill="#F5F3E5" transform="translate(224,551)"/>
<path d="M0 0 C2.58 3.86 2.27 7.03 2.23 11.51 C2.23 12.38 2.23 13.25 2.23 14.14 C2.23 17.02 2.21 19.89 2.2 22.76 C2.19 24.75 2.19 26.74 2.19 28.74 C2.18 33.98 2.16 39.22 2.14 44.46 C2.12 49.81 2.11 55.16 2.1 60.51 C2.08 71.01 2.04 81.5 2 92 C1.01 92.5 1.01 92.5 0 93 C-0.15 81.32 -0.3 69.63 -0.44 57.95 C-0.51 52.53 -0.58 47.1 -0.65 41.68 C-0.72 36.45 -0.78 31.21 -0.84 25.98 C-0.87 23.98 -0.89 21.98 -0.92 19.98 C-0.96 17.19 -0.99 14.4 -1.02 11.6 C-1.03 10.77 -1.05 9.94 -1.06 9.08 C-1.09 5.78 -1.05 3.15 0 0 Z " fill="#F5EBD3" transform="translate(530,584)"/>
<path d="M0 0 C0.76 -0.04 1.52 -0.07 2.3 -0.11 C6.57 -0.18 8.19 -0.01 11.67 2.71 C15.96 8.37 14.68 14.54 14.44 21.31 C14.41 22.49 14.38 23.66 14.36 24.87 C14.03 34.47 13.26 44.25 7.69 52.38 C6.7 52.87 6.7 52.87 5.69 53.38 C6 52.86 6.31 52.34 6.62 51.81 C7.98 48.71 8.3 45.72 8.69 42.38 C9.35 42.38 10.01 42.38 10.69 42.38 C10.71 38.27 10.73 34.16 10.74 30.05 C10.75 28.66 10.75 27.26 10.76 25.87 C10.89 14.58 10.89 14.58 9.69 3.38 C6.75 1.91 4.08 2.13 0.81 2.06 C-1.04 2.01 -1.04 2.01 -2.93 1.95 C-6.34 2.11 -6.34 2.11 -8.74 4.1 C-10.56 6.73 -10.75 7.97 -10.56 11.12 C-10.53 11.92 -10.49 12.72 -10.45 13.55 C-10.41 14.15 -10.36 14.75 -10.31 15.38 C-12.31 13.75 -12.31 13.75 -14.31 11.38 C-14.56 8.12 -14.56 8.12 -14.31 5.38 C-13.65 5.38 -12.99 5.38 -12.31 5.38 C-12.02 4.74 -11.74 4.1 -11.44 3.44 C-9.06 -0.92 -4.42 0.08 0 0 Z " fill="#F5F3E5" transform="translate(633.3125,622.625)"/>
<path d="M0 0 C8.94 -0.78 8.94 -0.78 13.06 2.25 C16.35 6.92 16.26 11.67 16.56 17.25 C16.61 18 16.65 18.74 16.69 19.51 C16.8 21.34 16.9 23.17 17 25 C20.22 20.4 22.79 15.67 25.25 10.62 C25.61 9.89 25.98 9.15 26.35 8.39 C27.24 6.6 28.12 4.8 29 3 C29.66 3.33 30.32 3.66 31 4 C26 14 21 24 16 34 C14.68 33.67 13.36 33.34 12 33 C12.02 32.13 12.03 31.26 12.05 30.37 C12.1 27.15 12.14 23.94 12.16 20.72 C12.18 19.33 12.2 17.93 12.23 16.54 C12.26 14.54 12.28 12.54 12.29 10.54 C12.31 9.33 12.32 8.13 12.34 6.89 C12.23 5.94 12.12 4.98 12 4 C8.96 1.98 7.81 1.68 4.31 1.38 C3.5 1.3 2.7 1.23 1.86 1.15 C1.25 1.1 0.63 1.05 0 1 C0 0.67 0 0.34 0 0 Z " fill="#F5F3E5" transform="translate(438,581)"/>
<path d="M0 0 C6.46 6.89 6.22 14.38 6.17 23.34 C6 26 6 26 5 27 C4.9 28.53 4.87 30.06 4.87 31.59 C4.87 32.54 4.86 33.49 4.86 34.47 C4.87 35.47 4.87 36.47 4.88 37.5 C4.87 38.47 4.87 39.44 4.86 40.44 C4.87 45.68 5.08 50.8 5.77 56 C6.68 63.83 6.47 72.29 2 79 C2 78.16 2.01 77.32 2.01 76.45 C2.05 68.47 2.08 60.5 2.1 52.53 C2.11 48.43 2.13 44.33 2.15 40.23 C2.17 36.27 2.18 32.31 2.19 28.35 C2.19 26.84 2.2 25.34 2.21 23.84 C2.27 15.69 2.1 7.92 0 0 Z M4 58 C5 60 5 60 5 60 Z M4 62 C5 66 5 66 5 66 Z " fill="#F5E3BF" transform="translate(876,590)"/>
<path d="M0 0 C-0.33 0.66 -0.66 1.32 -1 2 C-7.6 2.33 -14.2 2.66 -21 3 C-21.04 5.93 -21.08 8.86 -21.12 11.88 C-21.15 13.26 -21.15 13.26 -21.18 14.67 C-21.19 15.39 -21.19 16.12 -21.2 16.87 C-21.21 17.61 -21.22 18.35 -21.23 19.12 C-21.17 21.24 -21.17 21.24 -19 23 C-17.07 23.2 -15.13 23.31 -13.19 23.38 C-9.53 23.65 -7.13 23.94 -3.75 25.44 C-1.04 29.41 -1.6 33.34 -2 38 C-2.99 38.5 -2.99 38.5 -4 39 C-5.12 32.38 -5.12 32.38 -4 29 C-4.66 29 -5.32 29 -6 29 C-6 28.01 -6 27.02 -6 26 C-11.61 25.67 -17.22 25.34 -23 25 C-25.83 18.39 -26.87 14.86 -26 8 C-23.97 2.97 -23.97 2.97 -22 1 C-19.24 0.76 -16.51 0.58 -13.75 0.44 C-12.99 0.39 -12.22 0.35 -11.43 0.31 C-7.62 0.1 -3.82 -0.05 0 0 Z " fill="#F5F3E5" transform="translate(814,597)"/>
<path d="M0 0 C1.81 2.72 2.39 4 3.04 7.06 C3.2 7.85 3.37 8.65 3.55 9.46 C3.72 10.3 3.89 11.14 4.06 12 C4.24 12.85 4.42 13.71 4.6 14.59 C5.69 20 6.43 25.31 6.79 30.82 C7.07 33.72 7.91 36.3 9 39 C9.33 39 9.66 39 10 39 C10.99 33.39 11.98 27.78 13 22 C13.33 22 13.66 22 14 22 C13.45 31.44 12.46 40.65 11 50 C10.01 50 9.02 50 8 50 C6.21 46.04 5.49 42.37 4.94 38.06 C4.36 33.69 3.73 29.35 3 25 C2.46 21.46 1.95 17.92 1.44 14.38 C1.3 13.43 1.16 12.49 1.02 11.52 C0.89 10.62 0.76 9.71 0.62 8.77 C0.5 7.95 0.38 7.13 0.26 6.29 C0 4 0 4 0 0 Z " fill="#F5F3E5" transform="translate(714,586)"/>
<path d="M0 0 C0.99 0.33 1.98 0.66 3 1 C2.67 13.21 2.34 25.42 2 38 C1.67 38 1.34 38 1 38 C0.67 34.7 0.34 31.4 0 28 C-0.33 28 -0.66 28 -1 28 C-1.19 28.93 -1.39 29.85 -1.59 30.81 C-1.98 32.6 -1.98 32.6 -2.38 34.44 C-2.63 35.63 -2.89 36.83 -3.15 38.06 C-3.43 39.03 -3.71 40 -4 41 C-4.99 41.5 -4.99 41.5 -6 42 C-5.88 40.99 -5.76 39.99 -5.63 38.95 C-5.46 37.53 -5.29 36.11 -5.12 34.69 C-5.03 33.93 -4.94 33.18 -4.85 32.4 C-4.36 28.22 -3.9 24.04 -3.49 19.85 C-3.41 19.01 -3.33 18.17 -3.24 17.3 C-3.08 15.68 -2.93 14.05 -2.79 12.42 C-2.35 8.02 -1.59 4.17 0 0 Z " fill="#F5F3E5" transform="translate(737,636)"/>
<path d="M0 0 C0.66 0.33 1.32 0.66 2 1 C2.59 3.08 2.59 3.08 3.07 5.81 C3.24 6.81 3.42 7.8 3.6 8.82 C3.77 9.87 3.95 10.92 4.12 12 C4.31 13.02 4.49 14.03 4.68 15.08 C5.71 21.15 6.19 26.85 6 33 C-2.75 33.12 -2.75 33.12 -5 32 C-5 29.69 -5 27.38 -5 25 C-4.34 25 -3.68 25 -3 25 C-2.83 21.94 -2.67 18.88 -2.5 15.81 C-2.45 14.95 -2.4 14.08 -2.36 13.19 C-2.14 9.12 -1.93 5.08 -2 1 C-1.34 0.67 -0.68 0.34 0 0 Z M0 13 C-1.94 21.42 -1.94 21.42 -2 30 C-0.51 30.99 -0.51 30.99 1 32 C2.32 31.34 3.64 30.68 5 30 C4.52 24.46 3.86 19.26 2 14 C1.34 13.67 0.68 13.34 0 13 Z " fill="#F5F3E5" transform="translate(1012,614)"/>
<path d="M0 0 C2.31 0.5 2.31 0.5 5 2 C6.46 4.54 7.44 7.12 8 10 C7.67 10.99 7.34 11.98 7 13 C6.55 12.03 6.09 11.06 5.62 10.06 C4.34 6.93 4.34 6.93 2 6 C2.01 6.6 2.02 7.21 2.03 7.83 C2.07 10.6 2.1 13.36 2.12 16.12 C2.15 17.55 2.15 17.55 2.18 19.01 C2.21 24.09 2.03 28.24 0 33 C-0.33 33 -0.66 33 -1 33 C-1.92 26.79 -2.12 20.77 -2.06 14.5 C-2.06 13.58 -2.05 12.66 -2.05 11.72 C-2.04 9.48 -2.02 7.24 -2 5 C-1.34 5 -0.68 5 0 5 C-0.33 4.01 -0.66 3.02 -1 2 C-0.67 1.34 -0.34 0.68 0 0 Z " fill="#F5F3E5" transform="translate(452,646)"/>
<path d="M0 0 C0.66 0 1.32 0 2 0 C2 0.66 2 1.32 2 2 C2.99 2.33 3.98 2.66 5 3 C5 3.66 5 4.32 5 5 C5.66 5 6.32 5 7 5 C8.45 6.47 8.45 6.47 10.12 8.5 C15 14.22 19.92 19.65 26.12 23.94 C30.62 27.14 33.24 31.29 36 36 C32 36 32 36 30.32 34.46 C29.78 33.77 29.24 33.08 28.69 32.38 C25.86 28.93 22.92 26.05 19.48 23.23 C16.44 20.7 14.05 17.69 11.54 14.66 C9.9 12.77 9.9 12.77 7 11 C5.67 9.33 4.33 7.67 3 6 C2.01 5.34 1.02 4.68 0 4 C0 2.68 0 1.36 0 0 Z " fill="#CADDE1" transform="translate(418,512)"/>
<path d="M0 0 C0 0.66 0 1.32 0 2 C0.99 2 1.98 2 3 2 C4.32 4.64 4.1 6.68 4.06 9.62 C4.05 10.63 4.04 11.63 4.04 12.66 C4.02 13.43 4.01 14.21 4 15 C3.67 15 3.34 15 3 15 C2.34 11.7 1.68 8.4 1 5 C-0.98 4.27 -2.98 3.61 -5 3 C-5.99 3.5 -5.99 3.5 -7 4 C-7.03 7.48 -7.05 10.96 -7.06 14.44 C-7.07 15.43 -7.08 16.42 -7.09 17.45 C-7.09 18.86 -7.09 18.86 -7.1 20.31 C-7.1 21.18 -7.11 22.06 -7.11 22.96 C-7.23 24.99 -7.23 24.99 -6 26 C-3.66 25.71 -1.33 25.38 1 25 C1.66 23.02 2.32 21.04 3 19 C3.33 19 3.66 19 4 19 C4.12 22.38 4.12 22.38 4 26 C2 28 2 28 -0.31 28.23 C-1.2 28.22 -2.09 28.2 -3 28.19 C-4.33 28.18 -4.33 28.18 -5.69 28.17 C-8 28 -8 28 -10 27 C-10.96 22.12 -11.22 17.28 -11.31 12.31 C-11.35 11.03 -11.39 9.75 -11.43 8.43 C-11 5 -11 5 -9.14 2.59 C-6.19 0.4 -3.62 0 0 0 Z " fill="#F5F3E5" transform="translate(272,636)"/>
<path d="M0 0 C1 2 1 2 0.81 5.56 C0.73 9.97 2.16 13.01 4.04 16.93 C8.19 25.92 6.26 37.28 3.95 46.5 C2.98 49.05 2.07 50.28 0 52 C0.32 51.12 0.65 50.25 0.98 49.34 C2.64 43.52 2.33 37.51 2.31 31.5 C2.33 30.3 2.34 29.1 2.36 27.87 C2.37 18.64 1.23 13.09 -5 6 C-3.42 3.85 -1.89 1.89 0 0 Z " fill="#F5F3E5" transform="translate(290,621)"/>
<path d="M0 0 C0 0.66 0 1.32 0 2 C1.32 2.66 2.64 3.32 4 4 C4.11 6.77 4.19 9.54 4.25 12.31 C4.3 13.49 4.3 13.49 4.35 14.69 C4.45 20.48 4.45 20.48 2.25 23.03 C-1.33 24.57 -4.13 24.19 -8 24 C-9.64 19.66 -10.3 16.01 -10.31 11.38 C-10.33 10.27 -10.35 9.16 -10.36 8.02 C-9.96 4.7 -9.34 3.35 -7 1 C-4.56 0.29 -2.53 0 0 0 Z M-6 3 C-7.59 6.17 -7.14 9.58 -7.12 13.06 C-7.13 13.81 -7.13 14.55 -7.14 15.32 C-7.47 18.96 -7.47 18.96 -6 22 C-2.52 21.82 -2.52 21.82 1 21 C3.21 17.68 3.3 16.45 3.31 12.56 C3.33 11.62 3.35 10.67 3.36 9.69 C2.94 6.58 2.22 5.2 0 3 C-3.13 2.67 -3.13 2.67 -6 3 Z " fill="#F5F3E5" transform="translate(271,597)"/>
<path d="M0 0 C1.6 0.17 1.6 0.17 3.24 0.34 C4.05 0.43 4.85 0.53 5.69 0.62 C2.4 2.82 0.92 2.95 -2.94 3.19 C-6.44 3.13 -6.44 3.13 -9.31 4.62 C-9.59 7.74 -9.54 10.87 -9.56 14 C-9.58 14.88 -9.6 15.75 -9.62 16.66 C-9.63 17.5 -9.64 18.34 -9.64 19.21 C-9.65 19.98 -9.66 20.76 -9.67 21.56 C-9.23 24.12 -8.28 24.99 -6.31 26.62 C-7.96 26.62 -9.61 26.62 -11.31 26.62 C-15.14 20.57 -15.15 14.91 -13.81 8.05 C-12.13 2.09 -12.13 2.09 -9.09 0.35 C-5.84 -0.5 -3.34 -0.37 0 0 Z " fill="#F5F3E5" transform="translate(802.3125,637.375)"/>
<path d="M0 0 C3.37 0.32 6.32 0.7 9.44 2.06 C11.96 5.19 11.26 8.08 11 12 C10.67 12 10.34 12 10 12 C9.69 10.87 9.38 9.73 9.06 8.56 C8.37 5.21 8.37 5.21 7 4 C4.5 3.83 4.5 3.83 2 4 C0.49 5.51 0.79 6.92 0.68 9.04 C0.64 9.84 0.6 10.65 0.56 11.49 C0.52 12.34 0.48 13.19 0.44 14.06 C0.39 14.92 0.35 15.77 0.31 16.65 C0.2 18.77 0.1 20.88 0 23 C-0.66 23 -1.32 23 -2 23 C-2.33 23.99 -2.66 24.98 -3 26 C-3.33 26 -3.66 26 -4 26 C-4.11 23.17 -4.19 20.34 -4.25 17.5 C-4.28 16.71 -4.32 15.92 -4.35 15.1 C-4.45 9 -3.07 5.27 0 0 Z " fill="#F3EFDD" transform="translate(851,597)"/>
<path d="M0 0 C2.73 1.37 2.92 3.14 3.85 5.92 C4.07 6.58 4.28 7.25 4.5 7.94 C4.72 8.61 4.94 9.29 5.17 9.99 C6.67 14.65 7.8 19.29 8.54 24.14 C8.89 26.23 8.89 26.23 11 28 C12.97 31.17 13.22 33.55 13.12 37.25 C13.11 38.14 13.09 39.03 13.07 39.95 C13.04 40.97 13.04 40.97 13 42 C12.34 42 11.68 42 11 42 C7.01 33.58 5.56 25.09 4 16 C3.43 12.95 2.79 10.01 2 7 C1.34 6.67 0.68 6.34 0 6 C0 4.02 0 2.04 0 0 Z " fill="#F5F3E5" transform="translate(554,584)"/>
<path d="M0 0 C0.5 1.49 0.5 1.49 1 3 C-8.71 12.01 -16.75 13.18 -29.69 13.19 C-30.93 13.21 -30.93 13.21 -32.2 13.22 C-36.59 13.24 -40.01 13.06 -44 11 C-38.19 9.06 -32.18 8.95 -26.11 9.04 C-25.23 9.05 -24.35 9.07 -23.44 9.08 C-21.67 9.11 -19.9 9.15 -18.13 9.21 C-12.18 9.32 -7.82 8.69 -3.32 4.39 C-2.93 3.87 -2.53 3.35 -2.12 2.81 C-1.07 1.42 -1.07 1.42 0 0 Z " fill="#F5EAD0" transform="translate(877,669)"/>
<path d="M0 0 C2.34 2.48 2.98 3.78 3.29 7.23 C3.26 8.39 3.22 9.55 3.19 10.75 C3.16 11.92 3.13 13.09 3.11 14.3 C3.07 15.19 3.04 16.08 3 17 C2.34 17 1.68 17 1 17 C1 26.9 1 36.8 1 47 C0.67 47 0.34 47 0 47 C-0.75 40.98 -1.15 35.12 -1.13 29.06 C-1.13 28.26 -1.13 27.45 -1.14 26.62 C-1.14 24.94 -1.13 23.25 -1.13 21.57 C-1.12 18.98 -1.13 16.39 -1.14 13.8 C-1.14 12.16 -1.13 10.52 -1.13 8.88 C-1.13 8.1 -1.14 7.32 -1.14 6.52 C-1.11 1.11 -1.11 1.11 0 0 Z " fill="#F1EBD6" transform="translate(515,632)"/>
<path d="M0 0 C0 0.66 0 1.32 0 2 C1.92 1.86 3.83 1.71 5.75 1.56 C6.82 1.48 7.88 1.4 8.98 1.32 C11.44 1.06 13.64 0.68 16 0 C13.23 3.03 11.26 3.94 7.08 4.15 C0.78 4.19 0.78 4.19 -2.34 4.19 C-4.36 4.19 -6.38 4.21 -8.4 4.22 C-9.68 4.23 -10.96 4.23 -12.27 4.23 C-13.44 4.23 -14.61 4.24 -15.82 4.24 C-18.96 4 -21.17 3.34 -24 2 C-24 1.67 -24 1.34 -24 1 C-15.98 -0.13 -8.08 -0.1 0 0 Z " fill="#F5E6C6" transform="translate(1080,678)"/>
<path d="M0 0 C1.31 3.97 1.15 8 1.15 12.13 C1.15 12.95 1.15 13.77 1.16 14.61 C1.16 17.3 1.17 20 1.17 22.7 C1.17 24.57 1.17 26.44 1.18 28.31 C1.18 32.24 1.19 36.16 1.19 40.08 C1.19 45.12 1.2 50.15 1.22 55.19 C1.23 59.05 1.23 62.92 1.23 66.78 C1.23 68.64 1.23 70.5 1.24 72.35 C1.25 74.94 1.25 77.54 1.24 80.13 C1.25 80.9 1.25 81.67 1.26 82.46 C1.23 87.77 1.23 87.77 -1 90 C-1 89.34 -1 88.68 -1 88 C-1.66 87.67 -2.32 87.34 -3 87 C-2.84 86.01 -2.68 85.01 -2.51 83.99 C-1.95 80.06 -1.83 76.15 -1.81 72.18 C-1.8 71.44 -1.79 70.69 -1.79 69.92 C-1.77 68.31 -1.75 66.7 -1.74 65.09 C-1.72 62.54 -1.69 60 -1.66 57.45 C-1.59 51.13 -1.53 44.81 -1.47 38.49 C-1.42 33.14 -1.37 27.78 -1.31 22.43 C-1.28 19.92 -1.26 17.41 -1.24 14.9 C-1.22 13.37 -1.21 11.83 -1.19 10.3 C-1.19 9.6 -1.18 8.9 -1.18 8.18 C-1.14 5.18 -0.96 2.87 0 0 Z " fill="#F5F1E1" transform="translate(498,585)"/>
<path d="M0 0 C2.5 0.94 2.5 0.94 4 3 C4.62 5.99 4.87 8.95 5 12 C3 9 3 9 1.94 6.31 C0.26 3.79 0.26 3.79 -2.2 3.68 C-4.48 3.69 -6.72 3.79 -9 4 C-9.38 5 -9.38 5 -9.77 6.01 C-14.59 18.37 -14.59 18.37 -17.82 19.81 C-21.12 20.79 -23.21 21.28 -26.5 20.12 C-27 19.75 -27.49 19.38 -28 19 C-27.34 18.67 -26.68 18.34 -26 18 C-25.34 18.33 -24.68 18.66 -24 19 C-23.67 18.34 -23.34 17.68 -23 17 C-21.02 17 -19.04 17 -17 17 C-14.89 13.57 -14.92 10.97 -15 7 C-12.57 -0.28 -6.79 -0.99 0 0 Z " fill="#F5F3E5" transform="translate(1018,661)"/>
<path d="M0 0 C0.66 0.33 1.32 0.66 2 1 C1.6 1.42 1.2 1.85 0.79 2.29 C-5.58 9.34 -8.05 16.17 -8.21 25.71 C-8.23 26.83 -8.25 27.95 -8.27 29.1 C-8.28 30.3 -8.3 31.5 -8.32 32.74 C-8.34 33.97 -8.36 35.21 -8.38 36.48 C-8.43 39.76 -8.48 43.03 -8.53 46.3 C-8.58 49.65 -8.64 52.99 -8.69 56.34 C-8.8 62.89 -8.9 69.45 -9 76 C-9.99 76.5 -9.99 76.5 -11 77 C-11 57.2 -11 37.4 -11 17 C-10.34 17 -9.68 17 -9 17 C-8.91 15.51 -8.91 15.51 -8.81 14 C-8.16 9.34 -5.9 5.65 -3 2 C-2.01 1.34 -1.02 0.68 0 0 Z " fill="#F5F0DE" transform="translate(379,584)"/>
<path d="M0 0 C6.34 3.18 11.21 5.75 14.08 12.56 C15.26 16.97 15.29 21.03 15.25 25.56 C15.26 26.4 15.27 27.24 15.27 28.1 C15.26 32.51 15.07 35.99 13 40 C11.84 35.86 11.85 31.84 11.88 27.56 C11.87 26.81 11.87 26.06 11.86 25.29 C11.87 21.39 12.05 17.8 13 14 C12.34 14 11.68 14 11 14 C11 13.01 11 12.02 11 11 C10.34 10.67 9.68 10.34 9 10 C8.28 9.22 7.56 8.43 6.81 7.62 C3.59 4.62 1.09 3.52 -3 2 C-2.01 1.34 -1.02 0.68 0 0 Z " fill="#F5F3E5" transform="translate(279,581)"/>
<path d="M0 0 C0.66 0.66 1.32 1.32 2 2 C1.5 2.48 1.01 2.97 0.5 3.47 C-0.52 4.47 -0.52 4.47 -1.56 5.5 C-2.22 6.15 -2.89 6.8 -3.57 7.47 C-5.49 9.47 -7.29 11.49 -9.09 13.59 C-13.78 18.99 -18.87 23.97 -23.94 29 C-24.92 29.98 -25.9 30.95 -26.88 31.93 C-29.25 34.29 -31.62 36.64 -34 39 C-34.66 38.67 -35.32 38.34 -36 38 C-35.26 37.27 -35.26 37.27 -34.5 36.53 C-33.82 35.86 -33.14 35.19 -32.44 34.5 C-31.45 33.53 -31.45 33.53 -30.43 32.53 C-28.5 30.52 -26.68 28.48 -24.87 26.37 C-20.38 21.2 -15.5 16.43 -10.62 11.62 C-8.82 9.85 -7.02 8.07 -5.23 6.29 C-4.44 5.51 -3.65 4.74 -2.84 3.94 C-0.94 2.13 -0.94 2.13 0 0 Z " fill="#E8ECE3" transform="translate(297,474)"/>
<path d="M0 0 C7.05 7.52 6.27 16.29 6 26 C5.01 26.33 4.02 26.66 3 27 C1.51 24.02 1.99 21.32 2.06 18 C2.15 11.77 1.59 6.03 0 0 Z " fill="#F5F2E3" transform="translate(876,590)"/>
<path d="M0 0 C0.33 0 0.66 0 1 0 C1 25.74 1 51.48 1 78 C0.67 78 0.34 78 0 78 C0 52.26 0 26.52 0 0 Z " fill="#F5F3E5" transform="translate(829,589)"/>
<path d="M0 0 C4.53 1.51 6.82 4.96 9 9 C11.11 14.85 12.03 21.85 11 28 C9.48 29.79 9.48 29.79 8 31 C8.01 30.15 8.02 29.31 8.04 28.44 C8.13 19.17 8.13 19.17 7 10 C6.34 9.67 5.68 9.34 5 9 C3.97 7.02 2.97 5.02 2 3 C1.34 2.01 0.68 1.02 0 0 Z " fill="#F5F3E5" transform="translate(636,584)"/>
<path d="M0 0 C5.88 -0.23 8.72 0.16 13.25 3.81 C15 6 15 6 15.38 8.5 C14.99 11.08 14.31 12.76 13 15 C12.67 15.66 12.34 16.32 12 17 C11.34 16.67 10.68 16.34 10 16 C10.6 12.31 11.27 8.66 12 5 C7.71 5 3.42 5 -1 5 C-0.67 4.01 -0.34 3.02 0 2 C0.99 1.67 1.98 1.34 3 1 C2.01 0.67 1.02 0.34 0 0 Z " fill="#E5DDC2" transform="translate(470,579)"/>
<path d="M0 0 C0.77 0.27 1.55 0.55 2.34 0.83 C3.12 1.09 3.89 1.36 4.69 1.62 C7.07 2.75 8.36 3.46 9.84 5.64 C9.99 8.53 9.99 8.53 9.66 11.77 C9.56 12.84 9.46 13.92 9.36 15.03 C9.19 15.89 9.02 16.75 8.84 17.64 C8.18 17.97 7.52 18.3 6.84 18.64 C6.82 17.04 6.8 15.44 6.78 13.83 C6.77 12.94 6.76 12.05 6.75 11.12 C6.84 8.64 6.84 8.64 7.84 5.64 C3.2 3.25 -1.07 3.44 -6.16 3.64 C-4.72 0.78 -3.27 -0.54 0 0 Z " fill="#E1E9E3" transform="translate(507.15625,579.35546875)"/>
<path d="M0 0 C0.66 0 1.32 0 2 0 C3.93 5.54 4.4 10.84 4.78 16.69 C5.08 21.14 5.53 25.57 6 30 C1.91 25.91 2.62 20.3 2.28 14.84 C2.31 12.1 2.31 12.1 1 11 C0.77 9.15 0.59 7.3 0.44 5.44 C0.35 4.43 0.27 3.41 0.18 2.37 C0.12 1.59 0.06 0.81 0 0 Z " fill="#F5F3E5" transform="translate(1029,603)"/>
<path d="M0 0 C2.27 3.4 2.24 4.56 2.2 8.54 C2.19 9.62 2.18 10.69 2.18 11.79 C2.16 12.91 2.14 14.03 2.12 15.19 C2.12 16.32 2.11 17.45 2.1 18.62 C2.07 21.41 2.04 24.21 2 27 C1.34 27.33 0.68 27.66 0 28 C-0.2 23.9 -0.38 19.79 -0.56 15.69 C-0.62 14.52 -0.67 13.35 -0.73 12.15 C-0.78 11.03 -0.83 9.91 -0.88 8.76 C-0.93 7.73 -0.97 6.7 -1.02 5.64 C-1 3 -1 3 0 0 Z " fill="#F5E8CC" transform="translate(530,584)"/>
<path d="M0 0 C0.66 0.66 1.32 1.32 2 2 C-0.2 4.26 -2.41 6.51 -4.62 8.75 C-5.55 9.7 -5.55 9.7 -6.5 10.67 C-10.11 14.32 -13.61 17.33 -18 20 C-16.57 16.74 -14.83 14.6 -12.3 12.11 C-11.23 11.05 -11.23 11.05 -10.14 9.96 C-9.39 9.23 -8.64 8.5 -7.88 7.75 C-7.12 7 -6.37 6.26 -5.59 5.49 C-3.73 3.66 -1.87 1.83 0 0 Z " fill="#F5F3E5" transform="translate(332,440)"/>
<path d="M0 0 C0.66 0.33 1.32 0.66 2 1 C-1.92 8.31 -6.01 12.43 -14 15 C-17.34 15.61 -20.61 15.92 -24 16 C-23.34 15.67 -22.68 15.34 -22 15 C-21.67 14.34 -21.34 13.68 -21 13 C-19.18 12.73 -19.18 12.73 -16.88 12.62 C-11.87 12.15 -9.03 11.06 -5 8 C-3.68 5.71 -2.9 3.5 -2 1 C-1.34 0.67 -0.68 0.34 0 0 Z " fill="#F5F3E5" transform="translate(974,667)"/>
<path d="M0 0 C10 -0.62 10 -0.62 13.62 1.62 C15.33 4.57 15.86 6.6 16 10 C15.06 13.38 15.06 13.38 14 16 C13.67 16 13.34 16 13 16 C12.95 15.24 12.9 14.48 12.85 13.7 C12.74 12.21 12.74 12.21 12.62 10.69 C12.56 9.7 12.49 8.72 12.41 7.7 C12.16 4.78 12.16 4.78 10 2 C7.57 1.42 7.57 1.42 4.88 1.31 C3.96 1.25 3.05 1.18 2.12 1.11 C1.42 1.08 0.72 1.04 0 1 C0 0.67 0 0.34 0 0 Z " fill="#F5F3E5" transform="translate(802,663)"/>
<path d="M0 0 C0.66 0.66 1.32 1.32 2 2 C0.3 3.9 -1.41 5.8 -3.12 7.69 C-3.6 8.22 -4.07 8.75 -4.56 9.29 C-7.81 12.88 -11.22 15.98 -15 19 C-13.53 14 -10.61 11.29 -6.94 7.81 C-2.99 4.28 -2.99 4.28 0 0 Z " fill="#E9EDE4" transform="translate(240,531)"/>
<path d="M0 0 C0.66 0.33 1.32 0.66 2 1 C-4.24 5.4 -7.83 6.15 -15.44 6.19 C-16.74 6.2 -18.03 6.22 -19.37 6.23 C-22.75 6.02 -24.98 5.47 -28 4 C-27.34 3.34 -26.68 2.68 -26 2 C-25.45 2.33 -24.9 2.65 -24.33 2.99 C-18.15 5.67 -9.5 4.2 -3 3 C-2.67 2.34 -2.34 1.68 -2 1 C-1.34 0.67 -0.68 0.34 0 0 Z " fill="#F5F3E5" transform="translate(637,676)"/>
<path d="M0 0 C10.12 5.08 10.12 5.08 13 10 C13.75 13.31 13.75 13.31 14 16 C13.67 15.34 13.34 14.68 13 14 C12.34 14 11.68 14 11 14 C11 13.01 11 12.02 11 11 C10.34 10.67 9.68 10.34 9 10 C8.28 9.22 7.56 8.43 6.81 7.62 C3.59 4.62 1.09 3.52 -3 2 C-2.01 1.34 -1.02 0.68 0 0 Z " fill="#F5F0DF" transform="translate(279,581)"/>
<path d="M0 0 C3.58 6.43 4.59 14.74 4 22 C3 24.44 3 24.44 2 26 C0.85 21.71 0.96 17.61 1.06 13.21 C1.15 10.96 1.15 10.96 0 9 C-0.07 7.46 -0.08 5.92 -0.06 4.38 C-0.05 3.56 -0.04 2.74 -0.04 1.9 C-0.02 1.27 -0.01 0.65 0 0 Z " fill="#F5F3E5" transform="translate(1038,653)"/>
<path d="M0 0 C6.06 2.82 9.86 7.91 14 13 C12.19 13.69 12.19 13.69 10 14 C7.94 12.55 7.12 11.6 6.61 9.12 C5.87 6.55 4.72 5.22 2.94 3.25 C2.39 2.64 1.84 2.02 1.28 1.39 C0.86 0.93 0.43 0.47 0 0 Z " fill="#F1F1E4" transform="translate(440,534)"/>
<path d="M0 0 C0.66 0.33 1.32 0.66 2 1 C-5.79 5.47 -13.1 7.11 -22 5 C-18.88 3.16 -16.84 2.84 -13.25 3.06 C-8.13 3.2 -4.7 1.93 0 0 Z " fill="#F5F3E5" transform="translate(346,677)"/>
<path d="M0 0 C0.66 0 1.32 0 2 0 C2 6.93 2 13.86 2 21 C1.67 21 1.34 21 1 21 C0.86 19.89 0.71 18.77 0.56 17.62 C0.22 14.18 0.22 14.18 -1 12 C-0.91 9.96 -0.76 7.91 -0.56 5.88 C-0.46 4.78 -0.36 3.68 -0.25 2.55 C-0.17 1.71 -0.09 0.87 0 0 Z " fill="#F5F0DE" transform="translate(893,654)"/>
<path d="M0 0 C4.38 0.82 8.68 1.9 13 3 C9.29 4.16 5.74 4.17 1.88 4.19 C0.63 4.2 -0.61 4.22 -1.88 4.23 C-5 4 -5 4 -7 2 C-2.25 0.88 -2.25 0.88 0 2 C0 1.34 0 0.68 0 0 Z " fill="#F5E2BC" transform="translate(540,579)"/>
<path d="M0 0 C2.63 1.94 3.03 3.12 3.81 6.38 C4 9.98 3.63 11.83 2 15 C1.67 15 1.34 15 1 15 C0.83 12.88 0.67 10.75 0.5 8.62 C0.41 7.44 0.31 6.26 0.22 5.04 C0.1 3.36 0 1.68 0 0 Z " fill="#F5F3E5" transform="translate(455,729)"/>
<path d="M0 0 C0.9 0.11 1.8 0.22 2.73 0.34 C3.76 0.48 3.76 0.48 4.81 0.62 C4.81 1.28 4.81 1.95 4.81 2.62 C-3.62 4.05 -3.62 4.05 -8.19 1.62 C-4.74 -0.68 -3.95 -0.51 0 0 Z " fill="#F5F3E5" transform="translate(905.1875,678.375)"/>
<path d="M0 0 C0 3.14 -0.43 4.14 -1.88 6.81 C-3.61 10.13 -4.92 13.4 -6 17 C-7.52 12.35 -6.09 9.25 -4 5 C-1.81 2 -1.81 2 0 0 Z " fill="#F5F3E5" transform="translate(604,586)"/>
<path d="M0 0 C0.66 0.33 1.32 0.66 2 1 C1.6 1.45 1.2 1.89 0.79 2.36 C-2.18 5.75 -4.83 9.02 -7 13 C-8 10 -8 10 -7.11 8.03 C-6.66 7.34 -6.21 6.65 -5.75 5.94 C-5.09 4.9 -5.09 4.9 -4.42 3.84 C-3 2 -3 2 0 0 Z " fill="#F5F3E5" transform="translate(379,584)"/>
<path d="M0 0 C4.95 0 9.9 0 15 0 C14.67 0.66 14.34 1.32 14 2 C9.04 3.27 4.58 3.51 0 1 C0 0.67 0 0.34 0 0 Z " fill="#F5F3E5" transform="translate(500,679)"/>
<path d="M0 0 C1.49 0.99 1.49 0.99 3 2 C3.29 4.38 3.29 4.38 3.19 7.12 C3.16 8.04 3.13 8.95 3.11 9.88 C3.07 10.58 3.04 11.28 3 12 C2.01 12.5 2.01 12.5 1 13 C0.83 11.4 0.67 9.79 0.5 8.19 C0.41 7.29 0.31 6.4 0.22 5.48 C0 3 0 3 0 0 Z " fill="#F5F3E5" transform="translate(814,583)"/>
<path d="M0 0 C0 0.99 0 1.98 0 3 C-3.64 5.43 -5.71 5.16 -10 5 C-10 4.01 -10 3.02 -10 2 C-8.72 2.04 -7.44 2.08 -6.12 2.12 C-3.98 2.24 -3.98 2.24 -2 2 C-1.34 1.34 -0.68 0.68 0 0 Z " fill="#F5F3E5" transform="translate(451,555)"/>
<path d="M0 0 C0.33 0 0.66 0 1 0 C1 7.92 1 15.84 1 24 C0.67 24 0.34 24 0 24 C0 16.08 0 8.16 0 0 Z " fill="#6FB0DA" transform="translate(517,650)"/>
<path d="M0 0 C0.33 0 0.66 0 1 0 C1 7.26 1 14.52 1 22 C0.67 22 0.34 22 0 22 C0 14.74 0 7.48 0 0 Z " fill="#F6C26E" transform="translate(881,617)"/>
<path d="M0 0 C0.33 0 0.66 0 1 0 C1 7.26 1 14.52 1 22 C0.67 22 0.34 22 0 22 C0 14.74 0 7.48 0 0 Z " fill="#F6C26E" transform="translate(893,604)"/>
<path d="M0 0 C0.33 0 0.66 0 1 0 C1 3.3 1 6.6 1 10 C0.67 10 0.34 10 0 10 C0 6.7 0 3.4 0 0 Z " fill="#F5F3E5" transform="translate(1097,667)"/>
<path d="M0 0 C0.33 0 0.66 0 1 0 C1 2.97 1 5.94 1 9 C0.67 9 0.34 9 0 9 C0 6.03 0 3.06 0 0 Z " fill="#6FB0DA" transform="translate(850,621)"/>
<path d="M0 0 C0.33 0 0.66 0 1 0 C1 2.64 1 5.28 1 8 C0.67 8 0.34 8 0 8 C0 5.36 0 2.72 0 0 Z " fill="#F5F3E5" transform="translate(976,602)"/>
<path d="M0 0 C0.33 0 0.66 0 1 0 C1 2.31 1 4.62 1 7 C0.67 7 0.34 7 0 7 C0 4.69 0 2.38 0 0 Z " fill="#F5F3E5" transform="translate(891,659)"/>
<path d="M0 0 C0 0.99 0 1.98 0 3 C-0.66 2.67 -1.32 2.34 -2 2 C-1.34 1.34 -0.68 0.68 0 0 Z " fill="#F5F3E5" transform="translate(350,674)"/>
<path d="M0 0 C0.33 0 0.66 0 1 0 C1 1.65 1 3.3 1 5 C0.67 5 0.34 5 0 5 C0 3.35 0 1.7 0 0 Z " fill="#F5F3E5" transform="translate(976,649)"/>
<path d="M0 0 C1.65 0 3.3 0 5 0 C5 0.33 5 0.66 5 1 C3.35 1 1.7 1 0 1 C0 0.67 0 0.34 0 0 Z " fill="#F5DFB5" transform="translate(740,579)"/>
<path d="M0 0 C0.66 0 1.32 0 2 0 C2 0.66 2 1.32 2 2 C1.34 2 0.68 2 0 2 C0 1.34 0 0.68 0 0 Z " fill="#F5F3E5" transform="translate(287,674)"/>
<path d="M0 0 C1 4 1 4 1 4 Z " fill="#F5F3E5" transform="translate(222,629)"/>
<path d="M0 0 C4 1 4 1 4 1 Z " fill="#F5F3E5" transform="translate(635,617)"/>
<path d="" fill="#F6C26E" transform="translate(0,0)"/>
<path d="" fill="#F6C26E" transform="translate(0,0)"/>
<path d="" fill="#F5F3E5" transform="translate(0,0)"/>
<path d="" fill="#F5F3E5" transform="translate(0,0)"/>
<path d="M0 0 C3 1 3 1 3 1 Z " fill="#F5F3E5" transform="translate(640,616)"/>
<path d="M0 0 C0.66 0.66 1.32 1.32 2 2 C1.34 2 0.68 2 0 2 C0 1.34 0 0.68 0 0 Z " fill="#F6C26E" transform="translate(771,582)"/>
<path d="" fill="#F6C26E" transform="translate(0,0)"/>
<path d="M0 0 C0.66 0 1.32 0 2 0 C1.67 0.66 1.34 1.32 1 2 C0.67 1.34 0.34 0.68 0 0 Z " fill="#F6C26E" transform="translate(608,579)"/>
<path d="M0 0 C3 1 3 1 3 1 Z " fill="#F6C26E" transform="translate(945,578)"/>
<path d="M0 0 C3 1 3 1 3 1 Z " fill="#F6C26E" transform="translate(326,578)"/>
<path d="M0 0 C0.99 0.5 0.99 0.5 2 1 C1.01 1.5 1.01 1.5 0 2 C0 1.34 0 0.68 0 0 Z " fill="#F6C26E" transform="translate(615,577)"/>
<path d="M0 0 C0.99 0.5 0.99 0.5 2 1 C1.01 1.5 1.01 1.5 0 2 C0 1.34 0 0.68 0 0 Z " fill="#9BC6DD" transform="translate(329,440)"/>
<path d="M0 0 C3 1 3 1 3 1 Z " fill="#9BC6DD" transform="translate(340,435)"/>
<path d="M0 0 C3 1 3 1 3 1 Z " fill="#6FB0DA" transform="translate(331,435)"/>
<path d="M0 0 C2 1 2 1 2 1 Z " fill="#F5F3E5" transform="translate(729,679)"/>
<path d="" fill="#F5F3E5" transform="translate(0,0)"/>
<path d="" fill="#F6C26E" transform="translate(0,0)"/>
<path d="" fill="#F6C26E" transform="translate(0,0)"/>
<path d="" fill="#F5F3E5" transform="translate(0,0)"/>
<path d="M0 0 C2 1 2 1 2 1 Z " fill="#F5F3E5" transform="translate(971,616)"/>
<path d="M0 0 C2 1 2 1 2 1 Z " fill="#F5DAA9" transform="translate(730,583)"/>
<path d="M0 0 C2 1 2 1 2 1 Z " fill="#F6C26E" transform="translate(689,583)"/>
<path d="" fill="#F6C26E" transform="translate(0,0)"/>
<path d="M0 0 C2 1 2 1 2 1 Z " fill="#F6C26E" transform="translate(936,581)"/>
<path d="M0 0 C2 1 2 1 2 1 Z " fill="#F6C26E" transform="translate(733,581)"/>
<path d="M0 0 C2 1 2 1 2 1 Z " fill="#F5DAA9" transform="translate(941,579)"/>
<path d="M0 0 C2 1 2 1 2 1 Z " fill="#F5DAA9" transform="translate(897,579)"/>
<path d="M0 0 C2 1 2 1 2 1 Z " fill="#F6C26E" transform="translate(774,579)"/>
<path d="M0 0 C2 1 2 1 2 1 Z " fill="#F6C26E" transform="translate(733,579)"/>
<path d="M0 0 C2 1 2 1 2 1 Z " fill="#F6C26E" transform="translate(704,579)"/>
<path d="M0 0 C2 1 2 1 2 1 Z " fill="#F5DAA9" transform="translate(569,579)"/>
<path d="M0 0 C2 1 2 1 2 1 Z " fill="#F6C26E" transform="translate(442,579)"/>
<path d="M0 0 C2 1 2 1 2 1 Z " fill="#F6C26E" transform="translate(436,579)"/>
<path d="M0 0 C2 1 2 1 2 1 Z " fill="#F6C26E" transform="translate(390,578)"/>
<path d="" fill="#B2D1DF" transform="translate(0,0)"/>
<path d="M0 0 C2 1 2 1 2 1 Z " fill="#F5F3E5" transform="translate(329,438)"/>
<path d="" fill="#6FB0DA" transform="translate(0,0)"/>
<path d="" fill="#F5F3E5" transform="translate(0,0)"/>
<path d="" fill="#F5F3E5" transform="translate(0,0)"/>
<path d="" fill="#F5F3E5" transform="translate(0,0)"/>
<path d="" fill="#F5F3E5" transform="translate(0,0)"/>
<path d="" fill="#F5F3E5" transform="translate(0,0)"/>
<path d="" fill="#F5F3E5" transform="translate(0,0)"/>
<path d="" fill="#F5F3E5" transform="translate(0,0)"/>
<path d="" fill="#F5F3E5" transform="translate(0,0)"/>
<path d="" fill="#F5F3E5" transform="translate(0,0)"/>
<path d="" fill="#F5F3E5" transform="translate(0,0)"/>
<path d="" fill="#F5F3E5" transform="translate(0,0)"/>
<path d="" fill="#F6C26E" transform="translate(0,0)"/>
<path d="" fill="#F6C26E" transform="translate(0,0)"/>
<path d="" fill="#F5F3E5" transform="translate(0,0)"/>
<path d="" fill="#F5F3E5" transform="translate(0,0)"/>
<path d="" fill="#F5F3E5" transform="translate(0,0)"/>
<path d="" fill="#F6C26E" transform="translate(0,0)"/>
<path d="" fill="#F6C26E" transform="translate(0,0)"/>
<path d="" fill="#F6C26E" transform="translate(0,0)"/>
<path d="" fill="#F5F3E5" transform="translate(0,0)"/>
<path d="" fill="#F5F3E5" transform="translate(0,0)"/>
<path d="" fill="#F6C26E" transform="translate(0,0)"/>
<path d="" fill="#F6C26E" transform="translate(0,0)"/>
<path d="" fill="#F6C26E" transform="translate(0,0)"/>
<path d="" fill="#F6C26E" transform="translate(0,0)"/>
<path d="" fill="#F6C26E" transform="translate(0,0)"/>
<path d="" fill="#F6C26E" transform="translate(0,0)"/>
<path d="" fill="#F6C26E" transform="translate(0,0)"/>
<path d="" fill="#F6C26E" transform="translate(0,0)"/>
<path d="" fill="#F6C26E" transform="translate(0,0)"/>
<path d="" fill="#F6C26E" transform="translate(0,0)"/>
<path d="" fill="#F5F3E5" transform="translate(0,0)"/>
<path d="" fill="#F6C26E" transform="translate(0,0)"/>
<path d="" fill="#F6C26E" transform="translate(0,0)"/>
<path d="" fill="#F6C26E" transform="translate(0,0)"/>
<path d="" fill="#F6C26E" transform="translate(0,0)"/>
<path d="" fill="#F6C26E" transform="translate(0,0)"/>
<path d="" fill="#F6C26E" transform="translate(0,0)"/>
<path d="" fill="#F6C26E" transform="translate(0,0)"/>
<path d="" fill="#F6C26E" transform="translate(0,0)"/>
<path d="" fill="#F6C26E" transform="translate(0,0)"/>
<path d="" fill="#F6C26E" transform="translate(0,0)"/>
<path d="" fill="#F6C26E" transform="translate(0,0)"/>
<path d="" fill="#F6C26E" transform="translate(0,0)"/>
<path d="" fill="#F6C26E" transform="translate(0,0)"/>
<path d="" fill="#F6C26E" transform="translate(0,0)"/>
<path d="" fill="#F6C26E" transform="translate(0,0)"/>
<path d="" fill="#F6C26E" transform="translate(0,0)"/>
<path d="" fill="#F5F3E5" transform="translate(0,0)"/>
<path d="" fill="#F5F3E5" transform="translate(0,0)"/>
<path d="" fill="#F6C26E" transform="translate(0,0)"/>
<path d="" fill="#F6C26E" transform="translate(0,0)"/>
<path d="" fill="#F6C26E" transform="translate(0,0)"/>
<path d="" fill="#F5F3E5" transform="translate(0,0)"/>
<path d="" fill="#F5F3E5" transform="translate(0,0)"/>
<path d="" fill="#F5F3E5" transform="translate(0,0)"/>
<path d="" fill="#F5F3E5" transform="translate(0,0)"/>
<path d="" fill="#F5F3E5" transform="translate(0,0)"/>
<path d="" fill="#6FB0DA" transform="translate(0,0)"/>
<path d="" fill="#6FB0DA" transform="translate(0,0)"/>
<path d="" fill="#F5F3E5" transform="translate(0,0)"/>
<path d="" fill="#F5F3E5" transform="translate(0,0)"/>
<path d="" fill="#F5F3E5" transform="translate(0,0)"/>
<path d="" fill="#F5F3E5" transform="translate(0,0)"/>
<path d="" fill="#F5F3E5" transform="translate(0,0)"/>
<path d="" fill="#6FB0DA" transform="translate(0,0)"/>
<path d="" fill="#6FB0DA" transform="translate(0,0)"/>
<path d="" fill="#F5F3E5" transform="translate(0,0)"/>
<path d="" fill="#F5F3E5" transform="translate(0,0)"/>
<path d="" fill="#F5F3E5" transform="translate(0,0)"/>
<path d="" fill="#F5F3E5" transform="translate(0,0)"/>
<path d="" fill="#F5F3E5" transform="translate(0,0)"/>
<path d="" fill="#F5F3E5" transform="translate(0,0)"/>
<path d="" fill="#F5F3E5" transform="translate(0,0)"/>
<path d="" fill="#F5F3E5" transform="translate(0,0)"/>
<path d="" fill="#F5F3E5" transform="translate(0,0)"/>
<path d="" fill="#F5F3E5" transform="translate(0,0)"/>
<path d="" fill="#F5F3E5" transform="translate(0,0)"/>
<path d="" fill="#F5F3E5" transform="translate(0,0)"/>
<path d="" fill="#6FB0DA" transform="translate(0,0)"/>
<path d="" fill="#F5F3E5" transform="translate(0,0)"/>
<path d="" fill="#F5F3E5" transform="translate(0,0)"/>
<path d="" fill="#F5F3E5" transform="translate(0,0)"/>
<path d="" fill="#6FB0DA" transform="translate(0,0)"/>
<path d="" fill="#F5F3E5" transform="translate(0,0)"/>
<path d="" fill="#F5F3E5" transform="translate(0,0)"/>
<path d="" fill="#F5F3E5" transform="translate(0,0)"/>
<path d="" fill="#6FB0DA" transform="translate(0,0)"/>
<path d="" fill="#F5F3E5" transform="translate(0,0)"/>
<path d="" fill="#F5F3E5" transform="translate(0,0)"/>
<path d="" fill="#F5F3E5" transform="translate(0,0)"/>
<path d="" fill="#6FB0DA" transform="translate(0,0)"/>
<path d="" fill="#F5F3E5" transform="translate(0,0)"/>
<path d="" fill="#F5F3E5" transform="translate(0,0)"/>
<path d="" fill="#F5F3E5" transform="translate(0,0)"/>
<path d="" fill="#F5F3E5" transform="translate(0,0)"/>
<path d="" fill="#F5F3E5" transform="translate(0,0)"/>
</svg>
